/* XPM */
static char *_559039063344743edea82d8f04410a7T6zOo8d0yNgL0E6j[] = {
/* columns rows colors chars-per-pixel */
"64 64 39 1 ",
"  c black",
". c gray1",
"X c #040301",
"o c #040401",
"O c #040404",
"+ c #0A0902",
"@ c #080806",
"# c #0B0B0B",
"$ c #0C0C0B",
"% c #0B0B0C",
"& c gray5",
"* c #121107",
"= c #141205",
"- c #161505",
"; c #151407",
": c #181707",
"> c #1B1907",
", c #1F1D07",
"< c #121109",
"1 c #1F1D08",
"2 c #1D1C0E",
"3 c #101010",
"4 c #131313",
"5 c #141310",
"6 c gray8",
"7 c #181813",
"8 c #181818",
"9 c #1D1D1C",
"0 c #211E06",
"q c #221F08",
"w c #222009",
"e c #242109",
"r c #27240A",
"t c #2A270B",
"y c #312D0C",
"u c #202020",
"i c #403C10",
"p c #709AD1",
"a c white",
/* pixels */
"33333333&&3&&33333333333333&&33333333333333333333333333333333333",
"3333333&3&&333333333333&&&33333333333333333333333333333333333333",
"33333&&&&33333333333&&&33333333333333333333333333333333333333333",
"333&&&&&333333333&&3333                     33333333333333333333",
"3&&3&&&3333333&&&33333                       3333333333333333333",
"&33&&33333333&33333333  #                   33333333333333333333",
"3&&3333333&&3333366333  <++++++++++++++++<  33333333333333333333",
"&33333333&33333        aaaaaaaaaaaaaaaaaaaa        3333333333333",
"333333333333333        aaaaaaaaaaaaaaaaaaaa        3333333333333",
"&33333333333333        aappppppppppppppppaa        3333333333333",
"33333333333363   *****eaappppppppppppppppaay****    883333333333",
"33333333333    aaaaaaaaaappppppppppppppppaaaaaaaaaa    333333333",
"33333333333  3 aaaaaaaaappppppppppppppppppaaaaaaaaa73  333333333",
"3333333333     aaapppppppppppppppppppppppppppppppaao   333333333",
"3333333      ,raappppppppppppppppppppppppppppppppaaw1      33333",
"3333333    aaaaaappppppppppppppppppppppppppppppppaaaaaa    33333",
"3333333  #$aaaaapaaaapppppppppppppppppppppaaaappppaaaaa$$  33333",
"3333333    aaappaaaaapppppppppppppppppppppaaaapppppppaaX   33333",
"3333333   oaapppaaaaaaapppppppppppppppppppaaaapppppppaaX   33333",
"3333333   oaapppaaaaaaaaapppppppppppppppppaaaapppppppaaX   33333",
"3333333   oaapppaaaaaaaaapppppppppppppppppaaaapppppppaaX   33333",
"33333     oaapppaaaaaaaaaaapppppppppppppppaaaapppppppaaoO  33333",
"3336   aaaaaapppaaaapaaaaaaaapppppppppppppaaaaaaaaaaaaa    33333",
"333    aaaaaapppaaaapppaaaaaapppppppppppppaaaaaaaaaaaa     33333",
"33     aapppppppaaaapppaaaaaaappppppppppppaaaaa-     8 333333333",
"33   ooaapppppppaaaapppppaaaaaaapppaaaaaaaaaaaa:oOooo   33333333",
"3&&    aapppppppaaaappppppaaaaaappaaaaaaaaaaaaa         33333333",
"&&&  o aapppppppaaaappppppaaaaaaapa                     33333333",
"&&&    aapppppppaaaappppppppaaaaaaa          3  3     3333333333",
"333    aapppppppaaaapppaaaaaaaaaaaa #####%##$    333333333333333",
"333   oaapppppppaaaappaaaaaaaaaaaaa             3333333333333333",
"&33  O aapppppppaaaappaateeeeeeeee             33333333333333333",
"333    aapppppppaaaappaao                      33333333333333333",
"333  o aapppppppaaaappaa>========:             33333333333333333",
"333  o aapppppppaaaappaaaaaaaaaaaaa            33333333333333333",
"&&&    aapppppppaaaapppaaaaaaaaaaaa 6           &333333333333333",
"&&3   oaapppppppaaaappppppppppppppa          3  3333333333333333",
"&&&  o aapppppppaaaapppppppppppppaa                    333333333",
"&&&    aapppppppaaaappppppppppppppaaaaaaaaaaaaa        33&333333",
"&&3  o aapppppppaaaapppppppppppppppaaaaaaaaaaaa ###@#  &33333333",
"333   oaapppppppaaaappppppppppppppppaaaappaaaaa      8 333333333",
"333    aaaaaapppaaaappppppppppppppppaaaaapaaaaa             3333",
"3&3    aaaaaapppaaaapppppppppppppppppaaaapaaaaaaaaaaaaa     &&33",
"333 3    ooiapppaaaappppppppppppppppppaaaaaaaapaaaaaaaa O  &3333",
"3333333   oaapppaaaappppppppppppppppppaaaaaaaapppppppaa    33333",
"3333&&    oaapppaaaapppppppppppppppppppaaaaaaapppppppaa    33333",
"3&&&&3    oaapppaaaappppppppppppppppppppaaaaaapppppppaa    33333",
"&&&3&&     aaappaaaapppppppppppppppppppppaaaaapppppppaa    3&&33",
"&&&&&&&   @aaaaaaaaapppppppppppppppppppppaaaaappppaaaaa O  33333",
"&&&&&33    aaaaaappppppppppppppppppppppppppppppppaaaaaa    3333&",
"&&&3333        aappppppppppppppppppppppppppppppppaa       83&&&&",
"33333333&33   +aaapppppppppppppppppppppppppppppppaao 8 &&&&&&&&&",
"3&&&&&&&&&&   <aaaaaaaaappppppppppppppppppaaaaaaaaa$@9 &&&&&&&&&",
"&&&&&&&&&&     aaaaaaaaaappppppppppppppppaaaaaaaaaa    &&&&&&&&&",
"            &3   0qqqqyaappppppppppppppppaa qq       3O         ",
"              O6      -aappppppppppppppppaa      5              ",
"                   333 aaaaaaaaaaaaaaaaaaaa 3333                ",
"                       aaaaaaaaaaaaaaaaaaaa                     ",
"                O O###  2=-====-=-==-==--2  &&##&#O             ",
"                      & O                % 6                    ",
"                      &                    6                    ",
"                      #                   u#                    ",
"                        ######O#O##OOOOOO#                      ",
"                                                                "
};
