/* XPM */
static char *_85b859fafca4a4b973bf903958198d4pDd1OumW2hpQdIfh[] = {
/* columns rows colors chars-per-pixel */
"64 64 170 2 ",
"   c #000000",
".  c #0A0001",
"X  c #040B07",
"o  c #0D0D0D",
"O  c #190404",
"+  c #001608",
"@  c #13120E",
"#  c #0F1511",
"$  c #101010",
"%  c #1B1A12",
"&  c #1C1D1C",
"*  c #230406",
"=  c #310608",
"-  c #281813",
";  c #002C12",
":  c #08321C",
">  c #26210F",
",  c #262212",
"<  c #292412",
"1  c #2D2813",
"2  c #322C13",
"3  c #373011",
"4  c #3A3314",
"5  c #282728",
"6  c gray19",
"7  c #3E3E3E",
"8  c #49070A",
"9  c #55090C",
"0  c #610C11",
"q  c #740C11",
"w  c #453B14",
"e  c #004D23",
"r  c #035829",
"t  c #215238",
"y  c #00642F",
"u  c #007A39",
"i  c #524614",
"p  c #5A4D17",
"a  c #5F5116",
"s  c #655517",
"d  c #685814",
"f  c #6C5C16",
"g  c #665618",
"h  c #7A6716",
"j  c #3F4141",
"k  c #4A4A4A",
"l  c #45514A",
"z  c #4E5A54",
"x  c #545454",
"c  c #5D5D5D",
"v  c #734D50",
"b  c #676666",
"n  c #767676",
"m  c #8E1018",
"M  c #9A121A",
"N  c #A8151E",
"B  c #931920",
"V  c #B41721",
"C  c #BA2F37",
"Z  c #C01923",
"A  c #CD1B26",
"S  c #D31B26",
"D  c #D31C28",
"F  c #D52427",
"G  c #D62C26",
"H  c #D73125",
"J  c #D83E23",
"K  c #836D16",
"L  c #877417",
"P  c #8C7516",
"I  c #847419",
"U  c #DC591E",
"Y  c #DE6D1D",
"T  c #E07D1A",
"R  c #DB4822",
"E  c #DC5920",
"W  c #D73E46",
"Q  c #936D6F",
"!  c #9C7274",
"~  c #DC4E46",
"^  c #DA4149",
"/  c #00823E",
"(  c #2D983B",
")  c #37973B",
"_  c #4A9E35",
"`  c #58A134",
"'  c #67A32E",
"]  c #038541",
"[  c #008F44",
"{  c #049142",
"}  c #0D9340",
"|  c #079249",
" . c #08924A",
".. c #169543",
"X. c #35865D",
"o. c #319363",
"O. c #3C9E6D",
"+. c #49966F",
"@. c #45A776",
"#. c #58AA7D",
"$. c #60B478",
"%. c #95831A",
"&. c #AC8D16",
"*. c #A58918",
"=. c #AC9F1D",
"-. c #B69217",
";. c #BD9016",
":. c #B8AB1D",
">. c #BCAE1D",
",. c #86AA2A",
"<. c #8EAD29",
"1. c #94AB26",
"2. c #94AE28",
"3. c #A7AD22",
"4. c #B0AC20",
"5. c #BEB520",
"6. c #CE8E18",
"7. c #D08A19",
"8. c #D88B18",
"9. c #C39417",
"0. c #CA9A16",
"q. c #DA9816",
"w. c #E99D1A",
"e. c #C1A81C",
"r. c #D5A81B",
"t. c #DCBB1B",
"y. c #E59633",
"u. c #CBA520",
"i. c #CFBC2E",
"p. c #EAA521",
"a. c #E6BD39",
"s. c #B1B45B",
"d. c #ECC949",
"f. c #F1CB49",
"g. c #F3D878",
"h. c #7E8A84",
"j. c #50AF80",
"k. c #4FB382",
"l. c #50B382",
"z. c #858585",
"x. c #8C8D8C",
"c. c #929292",
"v. c #959D98",
"b. c #BF9395",
"n. c #A4A4A4",
"m. c #ADACAC",
"M. c #B1B1B1",
"N. c #E9BDBF",
"B. c #B7C1BC",
"V. c #F3DB80",
"C. c #F5DF91",
"Z. c #F4CEB4",
"A. c #F8E6A7",
"S. c #BCC6C0",
"D. c #CBCBCB",
"F. c #D8D8D8",
"G. c #F3C7C9",
"H. c #F4C8CA",
"J. c #D9E3DE",
"K. c #FBF1CB",
"L. c #EFECD3",
"P. c #E4E7E5",
"I. c #EFEEEE",
"U. c #EAF4EF",
"Y. c #FDF6E5",
"T. c #FDF9EC",
"R. c #EBF6F1",
"E. c #F4F4F4",
"W. c #FEFBF1",
"Q. c #FEFEFE",
/* pixels */
"$ $ $ $ $ $ $ $ o o $ o o $ $ $ $ $ $ $ $ $ $ $ $ $ $ o o $ o $ $ $ $ $ $ $ $ $ $ $ $ $ $ $ $ $ o $ $ $ $ $ $ $ $ $ $ $ $ $ o $ ",
"$ $ $ $ $ $ $ o $ o o $ $ $ $ $ $ $ $ $ $ $ $ o o o $ $ $ $ $ $ $ $ $ $ $ $ $ $ $ $ $ $ $ $ $ $ $ $ $ $ $ $ $ $ $ $ $ $ $ $ $ $ ",
"$ $ $ $ $ o o o o $ $ $ $ $ $ $ $ o $ $ o o o $ $ $ $ $ $ $ $ $ $ $ $ $ $ $ $ $ $ $ $ $ $ $ $ $ $ $ $ $ $ $ $ o $ $ $ $ $ $ $ $ ",
"$ $ $ o o o o o $ $ $ $ $ $ $ $ $ o o $ $ $ $ $ $ $ $ $ $ $ $ $ $ $ $ $ $ $ $ $ $ $ $ $ $ $ $ $ $ $ $ $ $ $ $ $ $ $ $ $ $ $ $ $ ",
"$ o o $ o o o $ $ $ $ $ $ $ o o o $ $ $ $ $ $ $ $ $ $ $ $ $ $ $ $ $ $ $ $ $ $ $ $ $ $ $ $ $ $ $ $ $ $ $ $ $ $ $ $ $ $ $ $ $ $ $ ",
"o $ $ o o $ $ $ $ $ $ $ $ o $ $ $ $ $ $ $ $ $ $ $ $ $ $ $ $ $ $ $ $ $ $ $ $ $ $ $ $ $ $ $ $ $ $ $ $ $ $ $ $ $ $ $ $ $ $ $ $ $ $ ",
"$ o o $ $ $ $ $ $ $ o o $ $ $ $ $ $ $ $ $ $ $ $ $ o $ $ $ $ $ $ $ $ $ $ $ $ $ $ $ $ $ $ $ $ $ $ $ $ $ $ $ $ $ $ $ $ $ $ $ $ $ $ ",
"o $ $ $ $ $ $ $ $ o $ $ $ $ $ $ $ $ $ $ $ $ $ $ $ $ $ $ $ $ $ $ $ $ $ $ $ $ $ $ $ $ $ $ $ $ $ $ $ $ $ $ $ $ $ $ $ o $ $ $ $ $ $ ",
"$ $ $ $ $ $ $ $ $ $ $ $ $ $ $ $ $ $ $ $ $ $ $ $ $ $ $ $ $ $ $ $ $ $ $ $ $ $ $ $ $ $ $ $ $ $ $ $ $ $ $ $ $ $ $ $ $ $ $ $ $ $ $ $ ",
"o $ $ $ $ $ $ $ $ $ $ $ $ $ $ $ $ $ $ $ $ $ $ $ $ $ $ $ $ $ $ $ $ $ $ $ $ $ $ $ $ $ $ $ $ $ $ $ $ $ $ $ $ $ $ $ $ $ $ $ $ $ $ $ ",
"$ $ $ $ $ $ $ $ $ $ $ $ $ $ $ o $ $ $ $ $ $ $ $ $ $ $ $ $ $ $ $ $ $ $ $ $ $ $ $ $ o $ $ $ $ $ $ $ $ $ $ $ $ $ $ $ $ $ $ $ $ $ $ ",
"$ $ o $ $ $ $ $ $ $ $ $ $ $ $ $ $ $ $ $ $ $ $ $ $ $ $ $ $ $ $ $ $ $ $ $ $ $ $ $ $ $ $ $ $ $ $ $ $ $ $ $ $ $ $ $ $ $ $ $ $ $ $ $ ",
"$ $ $ $ $ $ $ $ $ $ $ $ $ $ $ $ @ $ $ $ $ $ # # $ $ $ $ @ $ $ $ $ $ $ $ $ $ $ $ $ $ @ $ $ $ @ $ $ $ $ $ $ $ $ $ $ $ $ $ $ $ $ $ ",
"$ $ $ $ $ $ $ $ $ $ $ $ $ $ $ $ @ # % $ $ % # % $ % $ $ @ @ % @ $ $ % $ % $ % $ % $ $ @ @ @ @ @ $ o $ $ $ $ $ $ $ $ $ $ $ $ $ $ ",
"$ $ $ $ $ $ $ $ $ o $ $ $ $ $ $ % 4 g g g g g a g g d g s s s s g g s g s s s s s s s s g g a 2 $ $ $ $ $ $ $ $ $ $ $ $ $ $ $ $ ",
"$ $ $ $ $ $ $ $ $ $ $ $ $ $ $ $ < P t.5.5.5.5.5.5.5.u.i.d.f.f.f.f.f.d.f.a.p.w.w.w.w.w.w.w.p.r.f $ $ $ $ $ $ $ $ $ $ $ $ $ $ $ $ ",
"$ $ $ $ $ $ $ $ $ $ $ $ $ $ $ $ , I 2...} } } } } } ..$.P.T.T.T.T.T.T.Y.G.~ F F G G G G G R 7.f $ $ $ $ $ $ $ $ $ $ $ $ $ $ $ $ ",
"$ $ $ $ $ $ $ $ $ $ $ $ $ $ o $ 1 h ,.{ { { | { [ [  .l.R.Q.Q.Q.Q.Q.Q.Q.G.W D D D D D D D J 7.f $ $ $ $ o $ $ $ $ $ $ $ $ $ $ $ ",
"$ $ $ $ $ $ $ $ $ $ $ $ $ $ $ $ < I <.| { [ [ [ [ [ | k.R.Q.Q.Q.Q.Q.Q.Q.G.W D D D D D D D R 7.f $ $ $ $ $ $ $ $ $ $ $ $ $ $ $ $ ",
"$ $ $ $ $ $ $ $ $ $ $ $ $ $ $ $ < I <.| [ [ [ [ [ { | k.U.Q.E.E.E.E.E.Q.G.^ D D D D D D D J 7.f $ $ $ $ $ $ $ $ $ $ $ $ $ $ $ $ ",
"$ $ $ $ $ $ $ $ o $ $ $ $ $ $ $ < I <.{ [ [ [ [ [ [ | @.S.m.c.z.x.c.M.F.N.W D D D D D D D J 7.f $ $ $ $ $ $ $ $ $ $ $ $ $ $ $ $ ",
"$ $ $ $ $ $ $ $ $ $ $ $ $ $ $ $ < I <.{ [ [ [ [ [ ] r : % X         X 5 v C D D D D D D D J 7.f $ $ $ $ $ $ $ $ $ $ $ $ $ $ $ $ ",
"$ $ $ $ o $ $ $ $ $ $ $ $ $ $ o < I <.{ [ [ [ [ ] e                     . 8 V D D D D D D J 7.f $ $ $ $ $ $ $ $ $ $ $ $ $ $ $ $ ",
"$ $ $ $ $ $ $ $ $ $ $ o o $ $ $ < I <.{ [ [ | [ [ y +                   X O q D D D D D D R 7.f $ o $ $ $ $ $ $ $ $ $ $ $ $ $ $ ",
"$ $ $ $ $ $ $ $ o o o $ $ $ $ $ < I <.{ [ [ [ [ [ ] e   o & 7 k 5 X       . 9 D D D D D D J 7.f $ $ $ $ $ $ $ $ $ $ $ $ $ $ $ $ ",
"$ $ $ $ $ $ o o o $ $ $ $ $ $ $ < I <.{ [ { [ [ [ [ u t z.F.E.E.D.c       . 9 A D D D D D J 7.f $ $ $ $ $ $ $ $ $ $ $ o $ $ $ $ ",
"$ o o o o o o $ $ $ $ $ $ $ $ $ < I <.{ [ [ [ [ [ [  .j.R.Q.Q.Q.P.n       O q D D D D D D J 7.f $ $ $ $ $ $ $ $ $ $ $ $ $ $ $ $ ",
"o o o o o $ o $ $ $ $ $ o $ $ $ < I <.{ [ [ [ [ [ [ | k.P.E.I.P.n.6       = N D D D D D D J 7.f $ $ $ $ o $ $ $ $ $ $ $ $ $ $ $ ",
"o o o $ $ $ $ $ $ o o $ $ $ $ o < I <.{ [ [ [ [ [ [  .O.h.x k 6 o     o - B D D D D D D D J 7.f $ $ $ $ $ $ $ $ $ $ o $ $ $ $ $ ",
"$ $ $ $ $ $ o o $ $ $ $ $ $ $ $ < I <.{ [ [ [ [ [ [  .o.l           & b b.W S D D D D D D J 7.g $ $ $ $ $ $ $ $ $ $ $ $ $ $ $ $ ",
"$ $ $ $ $ o $ $ $ $ $ $ $ $ $ o < I <.{ [ [ [ [ [ [  .o.l           % x Q C S D D D D D D J 7.g $ $ $ $ $ $ $ $ $ $ $ $ $ $ $ $ ",
"o $ $ $ $ $ $ $ $ $ $ $ $ $ $ $ < I <.{ [ [ [ { [ [  .o.z o o X X         8 N D D D D D D J 7.g $ $ $ $ $ $ $ $ $ $ $ $ $ $ $ $ ",
"$ $ $ $ $ $ $ $ o o o $ $ $ $ o , I 2.{ [ [ [ [ [ [  .@.B.m.n.x.x o       . 8 Z D D D D D R 6.f $ $ $ $ $ $ $ $ $ $ $ $ $ $ $ $ ",
"$ $ $ $ o o o o o $ $ $ $ o o o , K 2. .[ [ [ [ [ {  .l.R.Q.Q.Q.J.n         * M D D D D D J 6.g $ $ $ $ $ $ $ $ $ $ $ $ $ $ $ $ ",
"$ $ $ $ o o o $ $ $ o o o $ $ $ % h 3.} [ [ [ [ [ [  .l.R.Q.Q.Q.I.c..       * m D D D D F R 6.i $ $ $ $ $ $ $ $ $ $ $ $ o $ $ $ ",
"o o o o $ $ $ o o o o $ $ $ $ $ % a 4.( [ [ [ [ / e r +.J.E.E.I.D.k         * M D D D D F E ;.4 o $ $ $ $ $ $ $ $ $ $ $ $ $ $ $ ",
"o o $ $ $ o o o o $ $ $ $ $ $ $ $ w =.` [ [ [ [ u ;   # j c b x 5           = V D D D D F Y *., $ $ $ $ $ $ $ $ $ $ $ $ $ $ $ $ ",
"o o o o o o o $ $ $ $ $ $ $ $ $ $ 1 %.,.{ { [ | u ;                       O q A D D D D J 8.h $ $ $ $ $ $ $ $ $ $ $ $ $ $ $ $ $ ",
"o o o o $ $ $ $ $ $ $ $ o o $ $ $ % f 4.) { | { u ;                   X O 0 V D D D D F E 9.w $ $ $ $ $ $ $ $ $ $ o $ $ $ $ $ $ ",
"o o $ $ $ $ $ $ o o o $ $ $ $ $ $ $ 4 *.,.{ { { / e + X o o X X X o & k ! W S D D D D J 8.L % $ $ $ $ o o o o o $ $ $ $ $ $ $ $ ",
"$ $ $ $ $ o o o $ $ $ $ $ $ $ $ $ $ % s :.` { { [ [ u X.v.c.z.z.c.m.D.I.H.^ S D D D H T -.4 $ $ o o o o o $ $ $ $ $ $ $ $ $ $ $ ",
"$ $ $ o o $ $ $ $ $ $ $ $ $ $ $ $ $ $ , h :._ { [ [  .l.R.Q.Q.Q.Q.Q.Q.Q.G.W S D D G Y 0.a o o o o o $ $ $ $ $ $ o $ $ $ $ $ $ $ ",
"$ o $ $ $ $ $ $ $ $ $ $ o $ $ $ $ o $ $ 1 P :.` { [ | j.R.Q.Q.Q.Q.Q.Q.Q.G.W S S G Y 0.f $ o o $ $ $ o $ $ $ $ $ $ $ $ o o o $ $ ",
"$ $ $ $ $ $ $ $ $ o o o $ $ $ o # o o $ $ 1 P >.' }  .j.R.Q.Q.Q.Q.Q.Q.Q.G.W S J T 0.f @ o $ $ $ $ $ $ $ $ $ $ $ o o o o $ $ $ $ ",
"$ $ $ $ $ $ $ o o o $ $ $ o o o o $ $ $ $ $ < h e.1.) #.U.Q.Q.Q.Q.Q.Q.Q.G.~ U q.-.i $ $ $ $ $ $ $ $ $ $ $ o o o o $ $ $ $ $ $ $ ",
"$ $ $ $ o o o $ $ $ $ o o o $ $ $ $ $ $ $ $ $ % i &.e.s.L.Q.Q.Q.Q.Q.Q.W.Z.y.q.P 2 @ $ $ $ $ $ $ $ $ o o o o $ $ $ $ $ $ $ $ $ $ ",
"$ o o o o $ $ $ $ o o o $ $ $ $ $ $ $ $ $ $ o o o < h r.f.A.Y.W.Q.W.K.V.a.&.p % @ o $ $ $ $ $ $ o o o o $ $ $ $ $ $ $ $ $ $ $ $ ",
"o o o $ o o o o o o $ $ $ $ $ $ $ $ $ $ o o o o o o o 4 K e.d.C.A.g.a.-.d > # # @ @ $ $ $ o o o o $ $ $ $ $ $ $ $ $ $ $ o o $ $ ",
"o o o o o o o o $ $ $ $ $ $ $ $ $ $ $ o o o o o o $ o o @ 3 h 9.r.&.s < $ $ $ $ $ $ o o o o o $ $ $ $ $ $ $ $ $ $ o o $ $ $ $ $ ",
"o o o o o $ $ $ $ $ $ $ $ $ $ $ $ o o o o o $ $ o o o o o o @ < 4 % $ $ $ $ $ $ o o o o $ $ $ $ $ $ $ $ $ $ $ o o $ $ $ $ $ $ o ",
"o o o $ $ $ $ $ $ $ $ $ $ $ $ o o o o o $ $ o o o o o o o o $ $ $ $ $ $ $ o o o o o $ $ $ $ $ $ $ $ $ $ $ o o $ $ $ $ $ o o o o ",
"$ $ $ $ $ $ $ $ o $ $ $ o o o o o o o $ o o o o o o o o $ $ $ $ $ $ o o o o o o o $ $ o o o $ o o o o o o o o o o o o o o o o o ",
"$ o o o o o o o o o $ o o o o o o o o o o o o o o o $ $ $ $ $ o # o o o o o o $ $ o o o $ o o o o o o o o o o o o o o o o o o o ",
"o o o $ o o o $ o o   o o o o o o o o o o o o o $ $ $ $ o o o o o o o o o $ $ o o o $ o o o o o o o o $ o o o $ o o o $ o o o o ",
"                                                                                                                                ",
"                                                                                                                                ",
"                                                                                                                                ",
"                                                                                                                                ",
"                                                                                                                                ",
"                                                                                                                                ",
"                                                                                                                                ",
"                                                                                                                                ",
"                                                                                                                                ",
"                                                                                                                                "
};
