/* XPM */
static char *_ee6a842129f467ad47638d2ede4ab40olkf3hbg4p9F16vN[] = {
/* columns rows colors chars-per-pixel */
"64 64 255 2 ",
"   c #000000",
".  c #0D0A07",
"X  c #0D0D0D",
"o  c #12100E",
"O  c #101010",
"+  c #1A1312",
"@  c #1B1A15",
"#  c #1D1C1A",
"$  c #211E0F",
"%  c #32110F",
"&  c #231B18",
"*  c #331210",
"=  c #28251B",
"-  c #352C1B",
";  c #2B2723",
":  c #352B24",
">  c #3A3529",
",  c #393734",
"<  c #56140F",
"1  c #581510",
"2  c #64140F",
"3  c #691411",
"4  c #771610",
"5  c #413D1C",
"6  c #6C3516",
"7  c #743512",
"8  c #773816",
"9  c #7C3A15",
"0  c #7C3D1A",
"q  c #48372B",
"w  c #513627",
"e  c #453C33",
"r  c #6E2F25",
"t  c #6D3922",
"y  c #743C23",
"u  c #783F26",
"i  c #4E4414",
"p  c #72580F",
"a  c #75641C",
"s  c #494526",
"d  c #585327",
"f  c #534C36",
"g  c #7A4429",
"h  c #6E4E34",
"j  c #726B2D",
"k  c #584E44",
"l  c #57534C",
"z  c #66594E",
"x  c #735B46",
"c  c #75664B",
"v  c #786754",
"b  c #7E7A71",
"n  c #9E150E",
"m  c #8E1611",
"M  c #BB170F",
"N  c #B21611",
"B  c #813E17",
"V  c #B32D24",
"C  c #CB080D",
"Z  c #D1060C",
"A  c #D30C0D",
"S  c #C6160E",
"D  c #D6120E",
"F  c #DB150E",
"G  c #D0180F",
"H  c #DD180E",
"J  c #CC1814",
"K  c #DC1510",
"L  c #DC1810",
"P  c #C7251F",
"I  c #8E5903",
"U  c #85431C",
"Y  c #8A461F",
"T  c #985A18",
"R  c #996407",
"E  c #966C0F",
"W  c #A47702",
"Q  c #AA7414",
"!  c #854726",
"~  c #8D4A23",
"^  c #8C4D2C",
"/  c #914D25",
"(  c #944D29",
")  c #8F532F",
"_  c #945224",
"`  c #94522A",
"'  c #99562C",
"]  c #9C592A",
"[  c #834D32",
"{  c #8C4E34",
"}  c #8C5334",
"|  c #8A5438",
" . c #9C5B34",
".. c #975838",
"X. c #B04F32",
"o. c #A55D3B",
"O. c #936833",
"+. c #A56427",
"@. c #A76637",
"#. c #AD783B",
"$. c #B17333",
"%. c #C2553C",
"&. c #8B5C45",
"*. c #975E43",
"=. c #A85F43",
"-. c #9B6344",
";. c #99674A",
":. c #9D714D",
">. c #886955",
",. c #9A6B52",
"<. c #867857",
"1. c #977558",
"2. c #A76747",
"3. c #B66947",
"4. c #B2714D",
"5. c #A86C53",
"6. c #A77558",
"7. c #B67859",
"8. c #957966",
"9. c #AE7B63",
"0. c #C06E4F",
"q. c #C37956",
"w. c #AC8602",
"e. c #B28704",
"r. c #B38C02",
"t. c #B89603",
"y. c #BB9C02",
"u. c #B19214",
"i. c #BCA402",
"p. c #BCA509",
"a. c #BAA517",
"s. c #B38D35",
"d. c #B9A82F",
"f. c #C29A0D",
"g. c #C3A402",
"h. c #C4AB01",
"j. c #CAAD01",
"k. c #C7A90B",
"l. c #D2AE0E",
"z. c #C7B005",
"x. c #CCB201",
"c. c #CDB40A",
"v. c #D3B500",
"b. c #D5BA01",
"n. c #D9BD01",
"m. c #D5B80A",
"M. c #D4BB0B",
"N. c #C8A817",
"B. c #CBB419",
"V. c #D7BB19",
"C. c #C49432",
"Z. c #C9AE2A",
"A. c #C9B82A",
"S. c #D5BA29",
"D. c #D5BA36",
"F. c #DDC203",
"G. c #DCC30B",
"H. c #DBC40D",
"J. c #DCC413",
"K. c #DDC715",
"L. c #DCC41B",
"P. c #E2C90B",
"I. c #E3CC14",
"U. c #E3C41A",
"Y. c #E3CD1B",
"T. c #E8D31B",
"R. c #D9C427",
"E. c #D9C739",
"W. c #E2CA27",
"Q. c #EAD523",
"!. c #E9D52B",
"~. c #E3CB38",
"^. c #E8D536",
"/. c #EDDA3C",
"(. c #F1DE38",
"). c #F1E13E",
"_. c #908C54",
"`. c #A9954F",
"'. c #BB8359",
"]. c #B5AC53",
"[. c #9A8673",
"{. c #A98667",
"}. c #B88767",
"|. c #B79268",
" X c #A08C79",
".X c #B79575",
"XX c #B5AD73",
"oX c #C78457",
"OX c #CD905A",
"+X c #D2BA4B",
"@X c #E4BA57",
"#X c #C68A67",
"$X c #D58E68",
"%X c #C6966A",
"&X c #D59568",
"*X c #C78C71",
"=X c #C79777",
"-X c #D49A78",
";X c #E49E73",
":X c #CEAF6C",
">X c #D8A77A",
",X c #E5AF71",
"<X c #ECB87A",
"1X c #D7C746",
"2X c #D4C754",
"3X c #E9D946",
"4X c #F1DE44",
"5X c #E7C851",
"6X c #E7D955",
"7X c #F2E147",
"8X c #EEE159",
"9X c #F2E459",
"0X c #D4CA70",
"qX c #E5D864",
"wX c #EACD74",
"eX c #EDE36D",
"rX c #F3E76A",
"tX c #F5EC73",
"yX c #F4E876",
"uX c #F4EB7C",
"iX c #A79889",
"pX c #B6A391",
"aX c #C19580",
"sX c #C8A485",
"dX c #D7A887",
"fX c #D5B38D",
"gX c #D8B694",
"hX c #E6AB88",
"jX c #E5B789",
"kX c #F3BF80",
"lX c #E8BC98",
"zX c #CCBBAC",
"xX c #E7BDA3",
"cX c #D4C69A",
"vX c #ECCE8B",
"bX c #F4C88A",
"nX c #E8C399",
"mX c #F5CB97",
"MX c #F6D29F",
"NX c #FBD39D",
"BX c #F6ED86",
"VX c #F9F189",
"CX c #F0E892",
"ZX c #EBC6A9",
"AX c #FBD6A3",
"SX c #F8D5A8",
"DX c #FBD9AC",
"FX c #EFCDB1",
"GX c #FCDDB4",
"HX c #F2D2BB",
"JX c #F9F2A8",
"KX c #FDE2BA",
"LX c #E9D7C8",
"PX c #F5D9C3",
"IX c #F9E3CD",
/* pixels */
"O O O O O O O O X X O X X O O O O O O O O O O O O O O X X O O O O O O X O O O O O X O O O O O O O O O O O X O O O O O O O O O O ",
"O O O O O O O X O X X O O O O O O O O O O O O O X O O O O O O O O O O O O O O O O O O O O O O O O O O O O O O O O O O O O O O O ",
"O O O O O X X X X O O O O O O O O O O O # ; ; > , > ; @ + O O O O O O O O O O O O O O O O O O O O O O O O O O O O O O O O O O O ",
"X O O X X X X X O O O X O O X O O O ; q h v 1.{.{._.v k , # O O O O O O O O O O O O O O O O O X O O O O O O O O O O X O O O X O ",
"O X X O X X X O X O O O O O X X @ , x 1.:.6.{.|.}.|.|.{.<.l ; O O O O O O O O O O O X O O O O O O O O O O O O O O O O X O O O O ",
"X O O X X O O O O O O O O X O O s <.{.:.:.:.;.,.,.1.,.,.8.8.z ; O O O O X O O O O O O O O O O O O O O O O O O O O O O O O O O O ",
"O X X O O O O O O O X X O O O > b |.|.:.| g t h &.&.;.2.2.1.{.c ; O O O O O O O O O O O O O O O O O O O O O O O O O O O O O O O ",
"X O O O O O O O O X O O O O ; z .X>X'...g g ! { *.5.7.$XoX6.{.[.f O O O O O O O O O O O O O O O X O O O O O O O O O O O O O O O ",
"O O O O O O O O O O O O O O , [.dXfX}...! ! { =.3.oX$X;X;X*X9.9.z # O O O O O O O O O O O o + * % % % % % % % % * * * * O O O O ",
"X O O O O O O O O O O O O O e iXgXfX%X=.( ..X.=.0.q.$XhXlXdX*XiXz ; O O O O O O O O O O o + 1 n n n n n n n n n n m n 4 * O O O ",
"O O O O O O O O O O O O O O , iXZXZX-X7.3.=.=.=.3.q.$XhXlXlXxXpXz @ O O O O O O O O X O O + 4 G F F F F F F F F K K K N < O O O ",
"O O O O O O O O O O O X O O , iXHXZXhX*X3.3.o.o.3.q.$XhXlXZXxXpXl O O O O O O O O O O O O + 4 G F F F F F F F K D K D N < O O O ",
"O O O O O O O O O O O O O O , pXPXZXdX7.5.=.o.3.3.7.q.-XxXxXPXzXl X O O O O O O O O O O O O 4 G K K H F F F F F F F K M < O O O ",
"O O O O O O O X X O O O O O , pXPXZX*X-.} { o.o.....2.oXxXPXIXzXl O O O O O O O O O O O O + 4 G K H H H H H K F L F F M < O O O ",
"O O O O O O O O O O O O O X , iXPXZX9.g y g 2.2.{ 6 t *.hXHXHXzXz @ O O O O O O O O O O O + 4 J H H H H H H F F F F K M 1 O O O ",
"O O O X O O O O O O O O O X # iXPXZX{.h r u 5.#X-.t t &.aXHXPXzXl O O O O O O O O X O O O + 4 J H H H H F F F F F F K M 1 O O O ",
"O O O O O O O O O O O O O O & 8.LXFX*X*.! =.*XhX$X=...0.hXPXHXaXe O O O O O O O O O O O O + 3 G H H H H H H H H K H F S < o O O ",
"O O O O O O O O O O O O O X + >.xXPXdX5.*.5.aXhXaX7.0.aXxXPXLX9.w O O O O O X O O O O O O $ 3 G H H H H H K K K K K D S 2 O O O ",
"O O O O O O O O O O O O O O O z zXIXHX9.=.9.*X*X*X4.0.hXxXIXLX9.- X O O O O O O O O O O O o 3 S H H H H H H H F K F F S 2 o O O ",
"O O O O O O O O O O O O O O O , pXIXFX*X%.5.5.=.5.3.0.dXPXIXzXz + O O O O O O O O O O O o o 2 S F F F F F F F H F F F C 3 + O O ",
"O O O O O O O X O O O O O O O # 8.LXxX*X9.5.&.&.5.}.q.-XLXIXiX; O O O O O O O O O O O O O o 2 M F F F F F F F D D D D S 3 o O O ",
"O O O O O O O O O O O O O O O O l zXxXaXaX5.{ { -.*X*X*XlXzXl O O O O O O O O O O O O O O @ 2 M F F F D D D D D D D A S 3 + O O ",
"O O O O O O O O O O O O O O O X ,  XlXhXaX=.[ [ { 4.-X-XhXsXf O O O O O O O O O O O O O O o 2 M F F D D A A A A A A Z C 3 + O O ",
"O O O O O O O O O O O X X O O O # v zXdX*XaX9.[.|.oX-XgXlX.Xe X O O O O O O O O O O O O O o 2 M F G D A A Z Z Z Z Z C C 3 + O O ",
"O O O O O O O O O O O O O O + $ ; c fXfX-X-X#X'.&X,XjXlXmX=Xf @ O O O O O O O O O O O O O O 1 M D D Z Z Z A J P P P C M 3 + O O ",
"O O O O O @ # 5 d d s 5 5 5 i a O.`.:X>X;Xq.3.oX&X;XjXlXnX:X`.d = O X X O O O O O O O O O O 1 M D A Z C P %.X.X.3.%.%.X.r & O O ",
"O X X O > d j `.2X1X1Xd.d.N.N.f.t.w.#.#Xq.$.q.OX&X<XjXfXjX:X+X+XO.s = # # O O O O O O O O O < N J C C M X.*.{ ^ { *.*.=.*.k # O ",
"X X # f `.2X6X1XE.1X3XE.R.U.l.f.w.I O.4.4.oXOXoX&XjXjX>XOX'.E.7X3X]._.b l # @ O O O O O O O $ 3 m m V V ( ! y t y u u ! *.8.k # ",
"X O f 2XqX2XE.3X3X7X).^.!.R.l.y.r.p h 6.OX'.3.@.oX;XkX>X2.Q E.!.Q.3X0XCXXXj d s $ o O O O O O + O w -.q.4...[ g r y u u { 6.8., ",
"O , _.qX2XA.E.).).3X4X/.!.Q.V.l.t.E O.%X}. .(  .@.4.&X&X..p p.L.R.!.3X6X2X1XE.d.d - $ $ O O O O O q 5.9.7.-.| [ [ { *.*.{ &.5.v ",
"# c 0XqXA.R.R.!.(./.3X3X^.!.R.J.p.w.`..X4.^ ^ ) ..o.@.4.O.a u.R.E.E.3X3X^.).7X/.E.d.O.d s > & o O : &.*X9.-.h g g g [ *.,.&.&.,.",
"s _.uX6Xd.R.R.L.Q.^.^./.^.R.R.L.B.p.d.'.:.^ ) ) ) .. .@.2.s.d./.^.).8X8X6X3X).3X^.^.E.d.].`.k ; + : >.aX}...g g g 6 r [ ,.6.,.&.",
"<.0XtX2XA.B.V.H.Y.!.~.^.^.!.R.L.L.B.C.`.-.} ) [ ) }  .o.$.Z.(.(.).7X9X9X9X)./.^.^.^.~.2X5XyX0X<.> q 6.sX*X-.| [ } [ [ [ | ,.9.}.",
"XX0XrX1XA.B.M.m.J.W.W.^.^.!.T.L.L.B.N.#.-.} ^ ^ ` `  .o.$.~.(.7X7X7X9X9X).(.!.!.Q.!.~.+XqXyXBXCX_.x 5.7.2.-.-.} [ ^ *.,.&.[ | -.",
"XXCXqX1Xd.B.c.c.M.I.Q.W.!.!.T.Y.H.M.N.#...^ ~ ~ ` ` ' +.N.W.(.(.3X7X7X).Q.T.T.Q.Q.!./.+X:XwXyXBXXX<.9.7.} y g | | } *.6.,.g g [ ",
"cXeX6XE.u.t.c.j.x.K.Y.Y.Q.!.Q.Y.H.c.Z.#. .Y ~ ~ ( ` ' Q f.U.Q.T.Q.Q.Q.Q.I.P.I.T.(.6X5X,X,X,X<XbXnX=X>X-X7.} g y [ ..-.5.;.g y ! ",
"CXeX1XR.a.u.y.g.j.H.K.Y.Y.Q.Q.T.J.B.s.4. .~ ~ ~ ` ] +.Q g.V.T.I.Y.I.Y.T.P.F.H.T.~.wXwXbXkX<XbXmXNXmXkXkX;X#X2.^ ! g } :.;.| [ [ ",
"JXCX6XR.a.a.p.p.h.M.K.K.Y.T.T.T.L.C.#.@.` / ^ ` ] +.Q r.k.V.P.T.Y.M.U.T.F.x.H.L.5XbXAXmXbXmXAXAXNXNXbXwX<X<X-X7.-.g g [ *.-.2.x ",
"JXBX8X3Xa.a.V.c.h.x.I.K.K.I.U.U.S.s.@._ ~ / ]  .+.R W r.g.M.P.T.Y.m.M.P.n.j.x.S.wXSXGXNXmXNXAXAXNXNXbXbXbXjXhX>X'.;.[ ! } 5.{.k ",
"JXBX8X6X1Xa.B.L.c.M.K.K.J.G.U.S.C.@.] / ~ ~ ] +.T I W r.p.F.P.T.J.v.j.M.G.j.h.B.bXKXGXGXAXAXNXNXNXNXNXNXmXfXZXnX-X6.-.-.5.}.{.h ",
"VXuX9X8X3XE.a.K.M.k.M.H.M.M.B.C.X. ._ / ~ / ] T I I W r.p.G.P.T.G.x.j.M.F.v.j.l.<XGXIXKXDXAXNXNXAXAXSXDXFXsXgXnX>XOX9.}.-XsX>.> ",
"VXtX9X8X6XE.R.K.l.y.y.c.c.N.C.$.o.] / Y ~ ( T R I R w.r.h.H.I.P.b.b.b.M.F.v.j.l.@XNXKXKXGXDXDXDXDXDXGXGXSXsXpXnX>X=X:X>XdX1.q ; ",
"uXtX7X3X6XA.B.Y.m.t.e.g.y.u.#.@.] ( / Y / ] T I I R e.t.c.H.P.H.n.G.I.P.G.l.v.n.S.wXNXGXGXGXGXGXGXGXGXGXFXpX{.>XjX>X>XdX{.w - = ",
"tX9X).^.A.a.B.K.U.k.r.e.Q 4.@.o.( / Y / ( T R R R w.t.g.m.H.P.F.F.P.I.J.n.j.v.n.m.D.vXAXGXGXGXGXGXGXDXSXAXfX[.1.|..X.X{.f - = @ ",
"rX7X!.R.a.p.p.H.V.N.Q Q $.@.] _ _ ( B / _ T W W W t.g.j.M.n.P.P.P.F.n.n.v.j.v.n.P.V.@XkXDXDXDXDXSXSXmXZXmXnX|.c x x z h q : & + ",
"tX8X^.V.a.a.c.p.N.f.$.$.@.X.( / Y B _ _ T Q e.e.t.g.j.j.v.n.n.n.n.n.n.n.v.j.n.P.P.U.D.,XmXNXNXNXMXmXnXbXbXjX>X{.v e e e > & + o ",
"tXrXrXE.B.S.N.u.Q @.@.@. .( ( / B ( Y ( T W g.g.g.g.j.j.j.n.n.n.n.v.v.n.v.j.v.P.T.(.!.D.@X<XwXbXbXvXjX<XjX=X{.>.f # # # # O O O ",
"uXuXqXZ.a.f.Q  . .' ] ' / ~ Y B B / ( _ Q e.g.j.g.j.j.j.j.n.n.n.n.n.n.v.n.l.l.!.4X7X9X~.V.U.!.@X:X|.|.{.1.z e # O O O O X X O O ",
"wX0XC.E w.+.O. .` ~ Y Y U U B U Y ~ _ T W t.j.j.j.j.j.v.v.n.b.n.n.v.v.v.v.v.V.rXtXrXrX2Xa.y.g.t.a q > - = O O O O X X O O O O O ",
"%X`.g g ! ' ` / ~ U B B 9 B B U ~ _ T R W g.v.j.x.j.x.v.v.n.n.n.n.v.n.n.v.v.U.yXuXrXtX].d i p i $ . O O O O O X X O O O O O O X ",
"xX>XO.g } ^ U 7 9 9 9 9 B g U Y ^ _ R R t.j.v.x.x.j.j.j.v.n.n.n.v.v.n.n.n.v.W.eXVXtXeX_.= O O O O O O O X X X O O O O O X X X X ",
"FXsX..Y ~ U 7 7 7 7 9 7 9 U Y _ / T R w.g.j.v.j.x.j.j.j.j.v.v.v.v.n.n.n.v.v.W.eXVXtXBX_.= X O X X X X X X X X X X X X X X X X X ",
"FX=X..! 0 6 7 7 7 7 9 0 U Y T / T R W w.i.z.z.F.x.x.g.j.v.v.v.b.n.n.n.v.v.b.R.rXVXtXeXc @ X X X X X X X X X X X X X X X X X X X ",
"FX=X} 8 7 7 7 7 8 9 0 U Y / _ _ R R w.r.z.F.z.i.x.v.j.j.x.v.b.b.n.v.v.v.x.b.W.rXVXtX0Xk O O X X X X X X X X X X X X X X X X X X ",
"gX}.! 8 6 7 7 7 8 B U ~ / ` ] T R w.t.i.x.F.z.z.x.b.b.h.j.x.b.b.n.v.v.v.x.b.Y.eXVXtX].5                                         ",
"dX'.^ y 7 7 7 6 0 U ~ ` ` ' ] R W w.t.i.x.z.z.i.x.b.F.x.j.j.x.b.v.n.v.v.x.F.R.eXVXqX_.@                                         ",
"=X}.2.g 8 7 7 g ! ~ / '  .+.R W w.t.i.i.F.i.F.i.i.F.F.F.x.z.z.b.n.v.v.v.v.v.W.rXVX0Xd X                                         ",
"8..X}...g 9 9 U ! (  .@.$.Q e.r.t.i.i.i.i.F.i.z.i.x.F.F.F.v.x.v.v.v.v.x.v.v.W.yXVX2Xs                                           ",
"f [.=X*.B U ! ~ ' @.#.C.C.g.g.y.i.i.i.i.z.z.i.i.z.F.F.F.F.F.x.x.v.b.v.v.x.v.~.yXuXXX5                                           ",
"# v }.*.! ^ `  .@.OX:X6X~.Z.p.y.i.i.i.p.i.z.z.i.i.i.F.F.b.b.F.x.v.b.b.v.x.v.~.yXuXXXs                                           ",
"  : ,.:..... .:.%XCXCXuX4XR.N.a.i.i.p.z.H.i.i.z.z.x.F.F.x.x.x.x.x.b.v.x.x.v.3XuXuXXXs                                           ",
"  . q ,.5.-...O.fXJXJXBXrX3XR.N.p.p.a.A.z.z.i.i.i.i.F.z.z.z.z.z.z.x.x.h.j.v.3XBXyX2Xd                                           ",
"    . : h h q s XXJXVXeXeX8X1XA.p.p.A.R.z.p.i.z.i.i.i.F.x.z.i.z.z.z.h.h.h.M.6XBXrX2Xd                                           ",
"        o $ . = XXJXBXeX8X8X1XR.a.p.R.R.c.i.i.i.i.i.i.i.i.i.z.z.z.i.i.g.z.c.6XBXrX2Xd                                           "
};
