/* XPM */
static char *_cd65d6ca3d447bc803c3ec231f06008bc7UUecrgoBYfWEB[] = {
/* columns rows colors chars-per-pixel */
"64 64 221 2 ",
"   c black",
".  c #0D0D0D",
"X  c #110F0D",
"o  c #13120E",
"O  c #101010",
"+  c #1D1914",
"@  c #231D15",
"#  c #251A19",
"$  c #292414",
"%  c #38251D",
"&  c #393118",
"*  c #191824",
"=  c #261E24",
"-  c #2B1F2E",
";  c #372626",
":  c #3B3126",
">  c #392835",
",  c #44361A",
"<  c #4C2B29",
"1  c #502A25",
"2  c #57372E",
"3  c #78373A",
"4  c #594919",
"5  c #6C5A1B",
"6  c #755D16",
"7  c #77611A",
"8  c #504328",
"9  c #6F5431",
"0  c #7B653B",
"q  c #27155A",
"w  c #342D42",
"e  c #37265A",
"r  c #1D186E",
"t  c #3A2461",
"y  c #332B7D",
"u  c #3D3478",
"i  c #491E54",
"p  c #4E2A4D",
"a  c #553B49",
"s  c #473858",
"d  c #672B4A",
"f  c #6A3A4D",
"g  c #463A67",
"h  c #433974",
"j  c #563F76",
"k  c #6A3C63",
"l  c #57494F",
"z  c #574859",
"x  c #694A4F",
"c  c #784642",
"v  c #6B5748",
"b  c #785846",
"n  c #655254",
"m  c #7A6848",
"M  c #776656",
"N  c #4E426B",
"B  c #534668",
"V  c #5D5167",
"C  c #584D73",
"Z  c #5C547C",
"A  c #7C416E",
"S  c #6A5E67",
"D  c #644478",
"F  c #764675",
"G  c #665B78",
"H  c #726E67",
"J  c #766968",
"K  c #6C6376",
"L  c #736A7C",
"P  c #A0352F",
"I  c #94770C",
"U  c #8B7217",
"Y  c #AB7513",
"T  c #87413C",
"R  c #94782A",
"E  c #856B34",
"W  c #8C7435",
"Q  c #A97326",
"!  c #CC6E0F",
"~  c #E3781D",
"^  c #C54334",
"/  c #F54C27",
"(  c #EC592B",
")  c #EE5C31",
"_  c #DA7925",
"`  c #D66F36",
"'  c #E46B2B",
"]  c #E46C35",
"[  c #8A2842",
"{  c #954B4C",
"}  c #825B49",
"|  c #AB4542",
" . c #A45445",
".. c #BE5D49",
"X. c #A44C55",
"o. c #BB5756",
"O. c #8F6B45",
"+. c #887548",
"@. c #B26B51",
"#. c #88466A",
"$. c #944863",
"%. c #A84D61",
"&. c #986567",
"*. c #8D7A66",
"=. c #827973",
"-. c #C95B45",
";. c #CF6C58",
":. c #DA7152",
">. c #E87A42",
",. c #E27A55",
"<. c #B48B08",
"1. c #BA9406",
"2. c #AA8811",
"3. c #A98719",
"4. c #BC9814",
"5. c #BCA21C",
"6. c #9D832A",
"7. c #978036",
"8. c #A98E2E",
"9. c #A89226",
"0. c #B59825",
"q. c #B59F38",
"w. c #B4A72D",
"e. c #B9A936",
"r. c #C08E08",
"t. c #C59C01",
"y. c #C79809",
"u. c #D3990C",
"i. c #CB8817",
"p. c #D78B1B",
"a. c #D19C14",
"s. c #D59519",
"d. c #E8950F",
"f. c #CDA602",
"g. c #CEAB01",
"h. c #C4A30B",
"j. c #CDAA0D",
"k. c #D3AC02",
"l. c #D8A804",
"z. c #CFB30C",
"x. c #D4B402",
"c. c #DCB401",
"v. c #D6BA02",
"b. c #D9BC01",
"n. c #D4B30B",
"m. c #D8BC0D",
"M. c #C8AA15",
"N. c #D3A615",
"B. c #CCB313",
"V. c #C6B41B",
"C. c #D4B816",
"Z. c #E0A801",
"A. c #E1B703",
"S. c #EAA916",
"D. c #E5B214",
"F. c #CB8427",
"G. c #D08F28",
"H. c #D88928",
"J. c #ED902E",
"K. c #C4AB22",
"L. c #CEB131",
"P. c #EAA52B",
"I. c #DCC402",
"U. c #DEC902",
"Y. c #DDC70A",
"T. c #DBC517",
"R. c #E1CC1C",
"E. c #DEC927",
"W. c #DECA3B",
"Q. c #E0CB37",
"!. c #96854E",
"~. c #928454",
"^. c #949358",
"/. c #A69548",
"(. c #AC9E54",
"). c #B6A44A",
"_. c #958769",
"`. c #A18272",
"'. c #B1AA64",
"]. c #A6A177",
"[. c #C39E4F",
"{. c #EC894D",
"}. c #C4B459",
"|. c #C8BA6C",
" X c #D4C447",
".X c #E2CE4A",
"XX c #E1CE53",
"oX c #D6C76F",
"OX c #E0CE6C",
"+X c #2B2388",
"@X c #352E85",
"#X c #3B3489",
"$X c #312B90",
"%X c #3E3997",
"&X c #423B8C",
"*X c #553D86",
"=X c #433C95",
"-X c #4C458A",
";X c #564684",
":X c #5F5B8E",
">X c #4B4692",
",X c #484397",
"<X c #524D93",
"1X c #575194",
"2X c #625C8C",
"3X c #5E6D89",
"4X c #6B6487",
"5X c #68669F",
"6X c #757299",
"7X c #4A49A2",
"8X c #5859A9",
"9X c #6666AD",
"0X c #7472AB",
"qX c #6B69B1",
"wX c #7F909C",
"eX c #908C9A",
"rX c #ACA89A",
"tX c #B9AB99",
"yX c #908FAC",
"uX c #ABA6AC",
"iX c #C1B788",
/* pixels */
"O O O O O O O O . . O . . O O O O O O O O O O O O O O . . O O O O O O O O O O O O O . O O O O O O O O O O O O O O O O O O O O O ",
"O O O O O O . . O . . O O O O O O O O O O O O . . . O O . O O O O O O O O O O O O O O O O O O O O O O O O O O O O O O O O O O O ",
"O O O O O . . . . O O O O O O O O O O O . . . O O O O O O O O O O O O O O O O O O O O O O O O O O O O O O O O O O O O O O O O O ",
"O O O . . . . . O O O O O O O O O . . O O O O O O O O O O O O O O O O O O O O O O O O O O O O O O O O O O O O O O O O O O O O O ",
"O . . O . . . O O O O O O O . . . O O O O O O O O O O O O O O O O O O O O O O O O O O O O O O O O O O O O O O O O O O O O O . O ",
". O O . . O O O O O O O O . O O O O O O O O O O O O O O O O O O O O O O O O O O O O O O O O O O O O O O O O O O O O O O O O O O ",
"O . . O O O O O O O . . O O O O O O O O O O O O O O O O O O O O O O O O O O O O O O O O O O O O O O O O O O O O O O O O O O O O ",
". O O O O O O O O . O O O O O O O O O O O O O O O O O O O O O O O O O O O O O O O O O O O O O O O O O O O O O O O O O O O O O O ",
"O O O O O O O O O O O O O O O O O O O O O O O O O O O O O O O O O O O O O O O O O O O O O O O O O O O O O O O O O O O O O O O O ",
". O O O O O O . O O O O O O O O O O O O O O O O O O O O O O O O O O O O O O O O O O O O O O O O O O O O O O O O O O O O O O O O ",
"O O O O O O O O O O O O O O O O O O O O O O O O O O O O O O O O O O O O O O O O O O O O O O O O O O O O O O O O O O O O O O O O ",
"O O O O O O O O O O O O O O O O O O O O O O O O O O O O O O O O O O O O O O . O O O O O O O O O O O O O O O O O O O O O O O O O ",
"O O O O O O O O O O O O O O O O O O O O O O O O O O O O O O O O O O O O O O O O O O O O O O O O O O O O O O O O O O O O O O O O ",
"O O O O O O O O O O O O O O O O O O O O O O O O O O O O O O O O O O O O O O O O O O O O O O O O O O O O O O O O O O O O O O O O ",
"O O O O O O O O O O O O O O O O O O O O O O O O O O O O O O O O O O O O O O O O O O O O O O O O O O O O O O O O O . O O O O O O ",
"O O O O O O O O O O O O O O O O O O O O O O O O O O O O O O O O O O O O O O O O O O O O O O O O O O O O O O O O O O O O O O O O ",
"O O O O O O O O O O O O O O O O O O O O O O O O O + : w s V m +.+.E 9 2 ; + + O O O O X O O O O O O O O O O O O O O O O O O O O ",
"O O O O O O O O O O O O O O O O O O O O O O O + & 9 v g g B z z n b O... .c < + O O O X O O O O O O O O O O O O O O O O O O O O ",
"O O O O O O O O O O O O O O O O O O O O X X $ 8 R 0 l e 0 6.7 v a g s f { | | 3 ; O X X O O O O O O O O O O O O O O O O O O O O ",
"O O O O O O O O O O O O O O O O O . O O o $ 5 6.W e l 6.5.5.v.g.4.Q b i t d [ [ d > * O O O O O O O O O O O O O O O O O O O O O ",
"O O O O O O O O O O O O O O O O O X X o $ 7 3.W e V 9.g.k.c.c.c.l.Z.u.Y c t r q q e - O O O O O O O O O O O O O O O O O O O O O ",
"O O O O O O O O O O O O O O O O O . o $ 6 1.R g B 9.v.v.x.C.V.m.Z.Z.l.d.! x r q i i i ; O X O O O O O O O O O O O O O O O O O O ",
"O O O O O O O O O O O O O O O . O O + 4 1.3.z N 6.v.v.x.C.'.^.(.L.Z.Z.Z.u.b r i | ^ P P % X O X . O O O O O O O O O O O O O O O ",
"O O O O O O O O O O O . . O O O O o , 2.5.m u +.n.b.v.m.}.rX`._.[.A.A.Z.N.b +Xi Q ! ! ! 6 @ O X O O O O O O O O O O O O O . O O ",
"O O O O O O O O . . . O O O O O O $ 6 9.m u V 5.U.I.v.V.].yXuXtXL.A.c.c.j.b y g 9.t.r.r.Y , o o O O O O O O O O O O O O O O O O ",
"O O O O O O . . . O O O O O O O O : 0 j +X@XS B.U.I.U.5.H 3XwX].C.A.c.c.M.J #XC 4.f.t.t.<.6 + X O O O O O O O O O O O O O O O O ",
"O . . . . . . O O O O O O O O O O w u y @X$X-X(.E.T.U.I.w.^.^.q.c.b.c.x.K.L &XG 5.g.f.t.<.I & o O O O O O O O O O O O O O O O O ",
". . . . . O O O O O O O . O O O O e B +.~.>X7XeXoX XE.Y.I.I.v.b.b.c.c.m.e.4X>XJ M.g.f.t.1.I 4 o O O O O O O O O O O O O O O O O ",
". . . O O O O O O . . O O O O . O b 0.v.V.=.7X0XrXOXXXW.T.v.b.b.v.b.C.C.).:X>X*.z.k.g.y.<.<.5 O O O O O O O O O O O O O O O O O ",
"O O O O O O . . O O O O O O O O O G.b.I.U.e.6X9XyXiXXX.XW.Y.b.b.v.B.L.)._.8X1X_.x.k.g.y.1.1.U . O O O O O O O O O O O O O O O O ",
"O O O O O . O O O O O O O O O . O J.v.I.U.T.].0XqXyX|.XXW.C.B.5.8.!.=.4X1X>X1X_.j.x.j.i.y.1.U . O O O O O O O O O O O O O O O O ",
". O O O O O O . O O O O O O O O O {.D.I.U.Y. XrXqX9XeX|.'./.J C u #X,X,X>X>X>XK /.j.a.i.f.1.2.O O O O O O O . O O O O O O O O O ",
"O O O O O O O O . . . O O O O . . ,.P.U.U.Y.E.oXeX8X8X0X5X%X+X+X+X@X-X2XL 4X-X-XK /.H.i.g.1.I . O O O O O O O O O O O . O O O O ",
"O O O . O . . . . O O O O . . . O ;.P.U.U.U.R.Q.'.5X7X7X,X%X@Xy N S !.e.K.q.K &XN &.` f.g.1.5 . O O O O O O O O O O O O O O O O ",
"O O O O . . . O O O . . . O O O O o.{.D.U.U.U.R.L.4X%X>XZ S +.8.5.j.x.x.x.z.q.G F o.@.h.h.U : . O O O O O O O O O O O O O O O O ",
". . . . O O O . . . . O O O O O O c {.D.U.U.U.U.e.:X%X2Xw.n.v.b.v.B.x.x.x.x.z.@.o.$.V 7.6.l * . . O O O O O O O O O O O O O O O ",
". . O O O . . . . O O O O O O O O < ;.P.U.U.U.U.e.<X,XH m.I.b.x.K.L.x.x.x.k.H.] ..C y B B w O O O O O O O O O O O O O O O O O O ",
". . . . . . . O O O O O O O O O O #  .{.S.U.A.D.(.,X>X^.b.b.v.n.H.G.x.k.N._ ' ' 0.V y u e = O O O O O O O O O O O O O O O O O O ",
". . . . O O O O O O O O . . O O O o 2 :.J.S.S.S.*.=X-X/.b.b.b.N.] ] s.H.' ( ' a.5.0 h n 8 o O O O O O O O O O O O . O O O O O O ",
". . O O O O O O . . . O O O O O O . # { >.J.d.J.&.=X;Xq.b.x.c.a.) / / / / ' a.f.4.M n 7 $ o O O O O O . . . . . O O O O O O O O ",
"O O O O O . . . O O . O O O O O O O O ; | >.] J.$.=XD e.c.x.x.a.) / / ( _ j.f.y.W V 9 & O O X O . . . . . O O O O O O O O O O O ",
"O O O . . O O O O O O O O O O O O O O O > } &.o.;X=XD F.Z.k.c.j.H.~ ~ p.j.g.h.6.n v , X O . . . . . O O O O O O O O O O O O O O ",
"O . O O O O O O O O O O . O O O O O O O O - j D <X*XD -.~ d.u.l.l.f.f.g.g.y.6.n l & o O . . . O O O O O O O O O O O O . . . O O ",
"O O O O O O O O O . . . O O O . X X . O O O = a #.#.k k X.-.` _ p.p.u.y.i.R x a % o . . . O O O O . O O O O O O . . . . O O O O ",
"O O O O O O O . . . O O O . . . . O O O O O O = < T X.#.#.k $.%.o.o.;. .} a < + . . . O O O O O O O O O O . . . . O O O O O O O ",
"O O O O . . . O O O O . . . O O O O O O O O O O . # 1 T X.$.#.A k k k p w = O . . X O O O O O O O O . . . . O O O O O O O O O O ",
"O . . . . O O O O . . . O O O O O O O O O O . . . . . . O . . . + . . . X X O O O O O O O O O O . . . . O O O O O O O O O O O O ",
". . . O . . . . . . O O O O O O O O O O . . . . . . . . . . . . O . . . O O O O O O O O O . . . . O O O O O O O O O O O . . O O ",
". . . . . . . . O O O O O O O O O O O . . . . . . O . . . . . . . . O O O O O O O O . . . . . O O O O O O O O O O . . O O O O O ",
". . . . . O O O O O O O O O O O O . . . . . O O . . . . . . . . O O O O O O O O . . . . O O O O O O O O O O O . . O O O O O O . ",
". . . O O O O O O O O O O O O . . . . . O O . . . . . . . . O O O O O O O . . . . . O O O O O O O O O O . . . O O O O O . . . . ",
"O O O O O O O O . O O O . . . . . . . O . . . . . . . . O O O O O O . . . . . . . O O . . . O . . . . . . . . . . . . . . . . . ",
"O . . . . . . . . . . . . . . . . . . . . . . . . . O O O O O . . . . . . . . O O . . . O . . . . . . . . . . . . . . . . . . . ",
". . . O . . . . . .   . . . . . . . . . . . . . O O O O . . . . . . . . . O O . . . O . . . . . . . . O . . . O . . . . . . . . ",
"                                                                                                                                ",
"                                                                                                                                ",
"                                                                                                                                ",
"                                                                                                                                ",
"                                                                                                                                ",
"                                                                                                                                ",
"                                                                                                                                ",
"                                                                                                                                ",
"                                                                                                                                ",
"                                                                                                                                "
};
