/* XPM */
static char *result[] = {
/* columns rows colors chars-per-pixel */
"64 64 78 1 ",
"  c #101010",
". c gray5",
"X c black",
"o c gray9",
"O c #0B0B0C",
"+ c #010100",
"@ c #010101",
"# c #020202",
"$ c #040404",
"% c #060605",
"& c #0E0D0B",
"* c #040300",
"= c #040301",
"- c #060503",
"; c gray7",
": c white",
"> c #060606",
", c #181818",
"< c #1D1D1C",
"1 c #161616",
"2 c #1F1D08",
"3 c #709AD1",
"4 c #090907",
"5 c #181813",
"6 c #040401",
"7 c #222009",
"8 c #0E0E0A",
"9 c gray2",
"0 c #111111",
"q c #141310",
"w c gray4",
"e c #0B0B0B",
"r c #121107",
"t c #131313",
"y c #221F08",
"u c #0C0C0C",
"i c #111007",
"p c #0B0B0A",
"a c #211E08",
"s c #312D0C",
"d c #151515",
"f c #202020",
"g c #13130B",
"h c #1D1C0E",
"j c #0A0A0B",
"k c #0A0902",
"l c #151305",
"z c #151405",
"x c gray1",
"c c #070707",
"v c gray3",
"b c #25220B",
"n c #020203",
"m c #242109",
"M c #242209",
"N c #090909",
"B c #080806",
"V c #121109",
"C c #1C1B0D",
"Z c #070706",
"A c #25230B",
"S c #332F0C",
"D c #0E0E0E",
"F c #121211",
"G c #111006",
"H c #211E06",
"J c #27240A",
"K c #12110A",
"L c #1F1D07",
"P c #403C10",
"I c #0C0C0B",
"U c #030301",
"Y c #050502",
"T c #070702",
"R c #020100",
"E c #020200",
"W c #020201",
"Q c gray8",
/* pixels */
"                                                 .....XXXXXXXXXX",
"                                                  ....XXXXXXXXXX",
"                                          .    .  ....XXXXXXXXXX",
"                                          .    .  ....XXXXXXXXXX",
"                                         XX.       ...XXXXXXXXXX",
"              XXXXXXXXXX                 XXXXXXXXXo...XXXXXXXXXX",
"              XXXXXXXXXX              .  XXXXXXXXXX...XXXXXXXXXX",
"              XXO+@@@#XX                 XX$@@@+%XX...XXXXXXXXXX",
"              XX&*===-XX XXX           . XXXXXXXXXX...XXXXXXXXXX",
"          ;XXXX:::::::::::::        ::::::::::::::XXXX>XXXXXXXXX",
"          ,XXXX:::::::::::::X       ::::::::::::::X,<X;XXXXXXXXX",
"          1X;X2::33333333:::X       :::333333333::XX4XXXXXXXXXXX",
"          XX567::33333333:::X       :::333333333::X68XXXXXXXXXXX",
"       XXXX::::::33333333:::X       :::333333333::::::XXXX9XXXXX",
"      0XXXX:::::333333333:::X       :::3333333333:::::XqXXwXXXXX",
"      ;XXXX::333333333333::: X     .::33333333333333::XXXXeXXXXX",
"      0XXXr::333333333333:::XXX   tX::33333333333333::XX0XeXXXXX",
"       XXXr::3333333333333:::XXXXXX:::33333333333333::XX0XeXXXXX",
"       XXXr::333:::::::::::::XXXXXX::::::::::::::333::yX0XuXXXXX",
"    X 0XXXi::333:::::::::::::pXXXXX::::::::::::::333::aX0XeXXXXX",
"   XXXXXXXs::333:::::::::::::eXXXXX::::::::::::::333::XXXXX1dwXX",
"   XXXX::::::333:::::::::::::eXXXXX::::::::::::::333::::::XXXf#X",
"   XXXg:::::33333333333333:::eXXXXX:::33333::::::3333:::::hjXX>X",
"   XXXk::33333333333333333::::XXXX:::3333::::::333333333::lXXX>X",
"   XXXk::333333333333333333:::XXXX:::33:::::::3333333333::zXXXxX",
"   XXXk::333333333333333333:::XXXX:::::::::::33333333333::lXXX9X",
"   XXXk::333333333333333333:::XXXX:::::::::3333333333333::lXXXcX",
"   XXXk::333333333333333333:::XXXX::::::::33333333333333::lXXX$X",
"   XXXk::333333333333333333:::XXXX::::::3333333333333333::lXXX9X",
"   XXXk::333333333333333333::::XX::::::33333333333333333::lXXXvX",
"   XXXk::3333333333333333333:::bn:::3:333333333333333333::lXXX>X",
"   XXXk::333333333333333333::::mX:::33333333333333333333::lXXX>X",
"   XXXk::3333333333333333::::::MX:::33333333333333333333::lXXXNX",
"   XXXk::3333333333333333::::::MX:::33333333333333333333::lXXXvX",
"   XXXk::333333333333333:::::::MX:::33333333333333333333::lXXXvX",
".  XXXk::3333333333333:::::::::MX:::33333333333333333333::lXXXwX",
".  XXXk::3333333333333::::::3::MX:::33333333333333333333::lXXXNX",
"   XXXk::333333333333:::::::3:::::::33333333333333333333::lXXXcX",
" . XXXk::333333333333:::::333::::::333333333333333333333::lXXXNX",
" . XXBV:::::3333333::::::333333:::3333333333333333333:::::CZXXNX",
" . XXXX::::::333333::::::333333333333333333333333333::::::XXXXxX",
"  .;XXXXXXA::33333:::::33333333333333333333333333333::SzXXX.DcXX",
"  .   0XXXr::33333:::::33333333333333333333333333333::yX0XNXXXXX",
"  .   0XXXr::333::::::333333333333333333333333333333::yXFXvXXXXX",
"      0XXXr::333:::::::::::::::::::::::::::::::::333::yX0XvXXXXX",
"   .  ;XXXr::333:::::::::::::::::::::::::::::::::333::yXXXvXXXXX",
"   .  tXXXG:::33:::::::::::::::::::::::::::::::::33:::HXXXXXXXXX",
"    . ;XXXX:::::3:::::::::::::::::::::::::::::::::::::XXXX$XXXXX",
"    .  XXXX::::::3333333333333333333333333333333::::::XdXX@XXXXX",
"    .   0 XXXXJ::3333333333333333333333333333333::XkKXXx#XXXXXXX",
"     .    tX0XL:::33333333333333333333333333333:::XXXXtXXXXXXXXX",
".         ;XXXX:::::::::33333333333333333:::::::::XXXXwXXXXXXXXX",
".     .    XXXX:::::::::33333333333333333::P::::::XXXX@XXXXXXXXX",
" .    .      XXXIU666Y::33333333333333333::T666UBXX .XXXXXXXXXXX",
"..     .      XXeXXXX+::33333333333333333::=XXXXXXX ..XXXXXXXXXX",
". .           XXXXXXXX:::::::::::::::::::::XXXXXXXX...XXXXXXXXXX",
" ...          XXXXXXXX:::::::::::::::::::::XXXXXXXX ..XXXXXXXXXX",
"  ...                XXXREEEEEEEEEEEEEEERXXX XXX.   ..XXXXXXXXXX",
"  ...                XXXXWW##WW##W##W##WWXXX . ..   ..XXXXXXXXXX",
"   ...                XXXXXXXXXXXXXXXXXXXXX  .....  ..XXXXXXXXXX",
"   . .                QXXXXXXXXXXXXXXXXXXXXX  . ..  ..XXXXXXXXXX",
"    . .                 XX...      . ..       ..... ..XXXXXXXXXX",
"    . .                   ...      .....  .   ..... ..XXXXXXXXXX",
"     . . .                 ..  .   .....       ....  .XXXXXXXXXX"
};
