/* XPM */
static char *result[] = {
/* columns rows colors chars-per-pixel */
"64 64 73 1 ",
"  c #101010",
". c gray5",
"X c black",
"o c gray9",
"O c #0B0B0C",
"+ c #010100",
"@ c #010101",
"# c #020202",
"$ c #040404",
"% c #060605",
"& c #0E0D0B",
"* c #040300",
"= c #040301",
"- c #060503",
"; c white",
": c gray7",
"> c #060606",
", c #181818",
"< c #1D1D1C",
"1 c #161616",
"2 c #1F1D08",
"3 c #709AD1",
"4 c #090907",
"5 c #181813",
"6 c #040401",
"7 c #222009",
"8 c #0E0E0A",
"9 c gray2",
"0 c #111111",
"q c #141310",
"w c gray4",
"e c #0B0B0B",
"r c #121107",
"t c #221F08",
"y c #0C0C0C",
"u c #111007",
"i c #211E08",
"p c #312D0C",
"a c #151515",
"s c #202020",
"d c #13130B",
"f c #1D1C0E",
"g c #0A0A0B",
"h c #0A0902",
"j c #151305",
"k c #151405",
"l c gray1",
"z c #070707",
"x c gray3",
"c c #090909",
"v c #080806",
"b c #121109",
"n c #1C1B0D",
"m c #070706",
"M c #25230B",
"N c #332F0C",
"B c #0E0E0E",
"V c #121211",
"C c #131313",
"Z c #111006",
"A c #211E06",
"S c #27240A",
"D c #12110A",
"F c #1F1D07",
"G c #403C10",
"H c #0C0C0B",
"J c #030301",
"K c #050502",
"L c #070702",
"P c #020100",
"I c #020200",
"U c #020201",
"Y c gray8",
/* pixels */
"                                                 .....XXXXXXXXXX",
"                                                  ....XXXXXXXXXX",
"                                          .    .  ....XXXXXXXXXX",
"                                          .    .  ....XXXXXXXXXX",
"                                         XX.       ...XXXXXXXXXX",
"              XXXXXXXXXXXXXXXXXXXXXXXXXXXXXXXXXXXXo...XXXXXXXXXX",
"              XXXXXXXXXXXXXXXXXXXXXXXXXXXXXXXXXXXXX...XXXXXXXXXX",
"              XXO+@@@#XXXXXXXXXXXXXXXXXXXXX$@@@+%XX...XXXXXXXXXX",
"              XX&*===-X;;;;;;;;;;;;;;;;;;;XXXXXXXXX...XXXXXXXXXX",
"          :XXXX;;;;;;;;;;;;;;;;;;;;;;;;;;;;;;;;;;;XXXX>XXXXXXXXX",
"          ,XXXX;;;;;;;;;;;;;;;;;;;;;;;;;;;;;;;;;;;X,<X:XXXXXXXXX",
"          1X:X2;;3333333333333333333333333333333;;XX4XXXXXXXXXXX",
"          XX567;;3333333333333333333333333333333;;X68XXXXXXXXXXX",
"       XXXX;;;;;;3333333333333333333333333333333;;;;;;XXXX9XXXXX",
"      0XXXX;;;;;333333333333333333333333333333333;;;;;XqXXwXXXXX",
"      :XXXX;;333333333333333333333333333333333333333;;XXXXeXXXXX",
"      0XXXr;;333333333333333333333333333333333333333;;XX0XeXXXXX",
"       XXXr;;333333333333333333333333333333333333333;;XX0XeXXXXX",
"       XXXr;;333;;;;;;;;;;;;;;;;;;;;;;;;;;;;;;;;;333;;tX0XyXXXXX",
"    X 0XXXu;;333;;;;;;;;;;;;;;;;;;;;;;;;;;;;;;;;;333;;iX0XeXXXXX",
"   XXXXXXXp;;333;;;;;;;;;;;;;;;;;;;;;;;;;;;;;;;;;333;;XXXXX1awXX",
"   XXXX;;;;;;333;;;;;;;;;;;;;;;;;;;;;;;;;;;;;;;;;333;;;;;;XXXs#X",
"   XXXd;;;;;3333333333333333333333333333333;;;;;;3333;;;;;fgXX>X",
"   XXXh;;33333333333333333333333333333333;;;;;;333333333;;jXXX>X",
"   XXXh;;33333333333333333333333333333;;;;;;;;3333333333;;kXXXlX",
"   XXXh;;3333333333333333333333333333;;;;;;;;33333333333;;jXXX9X",
"   XXXh;;33333333333333333333333333;;;;;;;;3333333333333;;jXXXzX",
"   XXXh;;333333333333333333333333;;;;;;;;;33333333333333;;jXXX$X",
"   XXXh;;33333333333333333333333;;;;;;;;3333333333333333;;jXXX9X",
"   XXXh;;333333333333333333333;;;;;;;;;33333333333333333;;jXXXxX",
"   XXXh;;3333333333333333333;;;;;;;;;;333333333333333333;;jXXX>X",
"   XXXh;;333333333333333333;;;;;;;;;33333333333333333333;;jXXX>X",
"   XXXh;;3333333333333333;;;;;;;;;;333333333333333333333;;jXXXcX",
"   XXXh;;3333333333333333;;;;;;;;33333333333333333333333;;jXXXxX",
"   XXXh;;333333333333333;;;;;;;3333333333333333333333333;;jXXXxX",
".  XXXh;;3333333333333;;;;;;;;33333333333333333333333333;;jXXXwX",
".  XXXh;;3333333333333;;;;;;3333333333333333333333333333;;jXXXcX",
"   XXXh;;333333333333;;;;;;;3333333333333333333333333333;;jXXXzX",
" . XXXh;;333333333333;;;;;333333333333333333333333333333;;jXXXcX",
" . XXvb;;;;;3333333;;;;;;3333333333333333333333333333;;;;;nmXXcX",
" . XXXX;;;;;;333333;;;;;;333333333333333333333333333;;;;;;XXXXlX",
"  .:XXXXXXM;;33333;;;;;33333333333333333333333333333;;NkXXX.BzXX",
"  .   0XXXr;;33333;;;;;33333333333333333333333333333;;tX0XcXXXXX",
"  .   0XXXr;;333;;;;;;333333333333333333333333333333;;tXVXxXXXXX",
"      0XXXr;;333;;;;;;;;;;;;;;;;;;;;;;;;;;;;;;;;;333;;tX0XxXXXXX",
"   .  :XXXr;;333;;;;;;;;;;;;;;;;;;;;;;;;;;;;;;;;;333;;tXXXxXXXXX",
"   .  CXXXZ;;;33;;;;;;;;;;;;;;;;;;;;;;;;;;;;;;;;;33;;;AXXXXXXXXX",
"    . :XXXX;;;;;3;;;;;;;;;;;;;;;;;;;;;;;;;;;;;;;;;;;;;XXXX$XXXXX",
"    .  XXXX;;;;;;3333333333333333333333333333333;;;;;;XaXX@XXXXX",
"    .   0 XXXXS;;3333333333333333333333333333333;;XhDXXl#XXXXXXX",
"     .    CX0XF;;;33333333333333333333333333333;;;XXXXCXXXXXXXXX",
".         :XXXX;;;;;;;;;33333333333333333;;;;;;;;;XXXXwXXXXXXXXX",
".     .    XXXX;;;;;;;;;33333333333333333;;G;;;;;;XXXX@XXXXXXXXX",
" .    .      XXXHJ666K;;33333333333333333;;L666JvXX .XXXXXXXXXXX",
"..     .      XXeXXXX+;;33333333333333333;;=XXXXXXX ..XXXXXXXXXX",
". .           XXXXXXXX;;;;;;;;;;;;;;;;;;;;;XXXXXXXX...XXXXXXXXXX",
" ...          XXXXXXXX;;;;;;;;;;;;;;;;;;;;;XXXXXXXX ..XXXXXXXXXX",
"  ...                XXXPIIIIIIIIIIIIIIIPXXX XXX.   ..XXXXXXXXXX",
"  ...                XXXXUU##UU##U##U##UUXXX . ..   ..XXXXXXXXXX",
"   ...                XXXXXXXXXXXXXXXXXXXXX  .....  ..XXXXXXXXXX",
"   . .                YXXXXXXXXXXXXXXXXXXXXX  . ..  ..XXXXXXXXXX",
"    . .                 XX...      . ..       ..... ..XXXXXXXXXX",
"    . .                   ...      .....  .   ..... ..XXXXXXXXXX",
"     . . .                 ..  .   .....       ....  .XXXXXXXXXX"
};
