/* XPM */
static char *_c1370aa3638406ef81e375ea296a92519DnasoMY6vssUgf[] = {
/* columns rows colors chars-per-pixel */
"64 64 89 1 ",
"  c #101010",
". c gray5",
"X c black",
"o c gray9",
"O c #0B0B0C",
"+ c #010100",
"@ c #010101",
"# c #020202",
"$ c #040404",
"% c #060605",
"& c #0E0D0B",
"* c #040300",
"= c #040301",
"- c #060503",
"; c gray7",
": c white",
"> c #060606",
", c #181818",
"< c #1D1D1C",
"1 c #161616",
"2 c #1F1D08",
"3 c #709AD1",
"4 c #040402",
"5 c #090908",
"6 c #090907",
"7 c #181813",
"8 c #040401",
"9 c #222009",
"0 c #0E0E0A",
"q c #090909",
"w c gray2",
"e c #111111",
"r c #141310",
"t c gray4",
"y c #030302",
"u c gray3",
"i c #0B0B0B",
"p c #121107",
"a c #161505",
"s c #181707",
"d c #131313",
"f c #111110",
"g c #221F08",
"h c #0C0C0C",
"j c #111007",
"k c #0B0B0A",
"l c #211E08",
"z c #312D0C",
"x c #151515",
"c c #202020",
"v c #13130B",
"b c #1D1C0E",
"n c #0A0A0B",
"m c #0A0902",
"M c #151305",
"N c #151405",
"B c gray1",
"V c #070707",
"C c #25220B",
"Z c #020203",
"A c #151407",
"S c #242109",
"D c #141204",
"F c #242209",
"G c #141205",
"H c #080806",
"J c #121109",
"K c #2A270B",
"L c #070702",
"P c #1B1907",
"I c #1C1B0D",
"U c #070706",
"Y c #25230B",
"T c #332F0C",
"R c #0E0E0E",
"E c #121211",
"W c #111006",
"Q c #211E06",
"! c #27240A",
"~ c #12110A",
"^ c #1F1D07",
"/ c #403C10",
"( c #0C0C0B",
") c #030301",
"_ c #050502",
"` c #020100",
"' c #020200",
"] c #020201",
"[ c gray8",
/* pixels */
"                                                 .....XXXXXXXXXX",
"                                                  ....XXXXXXXXXX",
"                                          .    .  ....XXXXXXXXXX",
"                                          .    .  ....XXXXXXXXXX",
"                                         XX.       ...XXXXXXXXXX",
"              XXXXXXXXXX                 XXXXXXXXXo...XXXXXXXXXX",
"              XXXXXXXXXX              .  XXXXXXXXXX...XXXXXXXXXX",
"              XXO+@@@#XX                 XX$@@@+%XX...XXXXXXXXXX",
"              XX&*===-XX XXX           . XXXXXXXXXX...XXXXXXXXXX",
"          ;XXXX::::::::XXXXX         XXXXX::::::::XXXX>XXXXXXXXX",
"          ,XXXX:::::::::oXXXX        XXX,X::::::::X,<X;XXXXXXXXX",
"          1X;X2::33333::X4XXX        XX5XX::3333::XX6XXXXXXXXXXX",
"          XX789::33333::X4XXX        XX5XX::3333::X80XXXXXXXXXXX",
"       XXXX::::::33333::X4XXX        XXqXX::3333::::::XXXXwXXXXX",
"      eXXXX:::::333333::X4XXX        XX5XX::33333:::::XrXXtXXXXX",
"      ;XXXX::333333333::XyXX X     . XXuXX::33333333::XXXXiXXXXX",
"      eXXXp::333333333::asXXXXX   dXXXXXXX::33333333::XXeXiXXXXX",
"       XXXp::333333333:::::XXXXXXXXXXX:::::333333333::XXeXiXXXXX",
"       XXXp::333:::::::::::XfXXXXXXX X:::::::::::333::gXeXhXXXXX",
"    X eXXXj::333:::::::::::XXkXXXXXXXX:::::::::::333::lXeXiXXXXX",
"   XXXXXXXz::333:::::::::::XXiXXXXXXXX:::::::::::333::XXXXX1xtXX",
"   XXXX::::::333:::::::::::XXiXXXXXXXX:::::::::::333::::::XXXc#X",
"   XXXv:::::3333333333333::XXiXXXXXXXX::333::::::3333:::::bnXX>X",
"   XXXm::3333333333333333::XXiXXXXXXXX::3::::::333333333::MXXX>X",
"   XXXm::3333333333333333::XXiXXXXXXXX::::::::3333333333::NXXXBX",
"   XXXm::3333333333333333::XXiXXXXXXXX:::::::33333333333::MXXXwX",
"   XXXm::3333333333333333::XXiXXXXXXXX:::::3333333333333::MXXXVX",
"   XXXm::3333333333333333::XXiXXXXX1XX::::33333333333333::MXXX$X",
"   XXXm::3333333333333333::XXXXXXXXXXX::3333333333333333::MXXXwX",
"   XXXm::33333333333333333:::::XXX:::::33333333333333333::MXXXuX",
"   XXXm::3333333333333333333:::CZA::3:333333333333333333::MXXX>X",
"   XXXm::333333333333333333::::SXD::33333333333333333333::MXXX>X",
"   XXXm::3333333333333333::::::FXG::33333333333333333333::MXXXqX",
"   XXXm::3333333333333333::::::FXG::33333333333333333333::MXXXuX",
"   XXXm::333333333333333:::::::FXG::33333333333333333333::MXXXuX",
".  XXXm::3333333333333:::::::::FXG::33333333333333333333::MXXXtX",
".  XXXm::3333333333333::::::3::FXG::33333333333333333333::MXXXqX",
"   XXXm::333333333333:::::::3::FXG::33333333333333333333::MXXXVX",
" . XXXm::333333333333:::::333::SXG::33333333333333333333::MXXXqX",
" . XXHJ:::::3333333::::::3333::KLP::33333333333333333:::::IUXXqX",
" . XXXX::::::333333::::::3333:::::::3333333333333333::::::XXXXBX",
"  .;XXXXXXY::33333:::::3333333:::::33333333333333333::TNXXX.RVXX",
"  .   eXXXp::33333:::::33333333333333333333333333333::gXeXqXXXXX",
"  .   eXXXp::333::::::333333333333333333333333333333::gXEXuXXXXX",
"      eXXXp::333:::::::::::::::::::::::::::::::::333::gXeXuXXXXX",
"   .  ;XXXp::333:::::::::::::::::::::::::::::::::333::gXXXuXXXXX",
"   .  dXXXW:::33:::::::::::::::::::::::::::::::::33:::QXXXXXXXXX",
"    . ;XXXX:::::3:::::::::::::::::::::::::::::::::::::XXXX$XXXXX",
"    .  XXXX::::::3333333333333333333333333333333::::::XxXX@XXXXX",
"    .   e XXXX!::3333333333333333333333333333333::Xm~XXB#XXXXXXX",
"     .    dXeX^:::33333333333333333333333333333:::XXXXdXXXXXXXXX",
".         ;XXXX:::::::::33333333333333333:::::::::XXXXtXXXXXXXXX",
".     .    XXXX:::::::::33333333333333333::/::::::XXXX@XXXXXXXXX",
" .    .      XXX()888_::33333333333333333::L888)HXX .XXXXXXXXXXX",
"..     .      XXiXXXX+::33333333333333333::=XXXXXXX ..XXXXXXXXXX",
". .           XXXXXXXX:::::::::::::::::::::XXXXXXXX...XXXXXXXXXX",
" ...          XXXXXXXX:::::::::::::::::::::XXXXXXXX ..XXXXXXXXXX",
"  ...                XXX`'''''''''''''''`XXX XXX.   ..XXXXXXXXXX",
"  ...                XXXX]]##]]##]##]##]]XXX . ..   ..XXXXXXXXXX",
"   ...                XXXXXXXXXXXXXXXXXXXXX  .....  ..XXXXXXXXXX",
"   . .                [XXXXXXXXXXXXXXXXXXXXX  . ..  ..XXXXXXXXXX",
"    . .                 XX...      . ..       ..... ..XXXXXXXXXX",
"    . .                   ...      .....  .   ..... ..XXXXXXXXXX",
"     . . .                 ..  .   .....       ....  .XXXXXXXXXX"
};
