/* XPM */
static char *result[] = {
/* columns rows colors chars-per-pixel */
"64 64 73 1 ",
"  c black",
". c gray5",
"X c #101010",
"o c gray8",
"O c #020201",
"+ c #020202",
"@ c #020100",
"# c #020200",
"$ c white",
"% c #040301",
"& c #709AD1",
"* c #010100",
"= c #0B0B0B",
"- c #080806",
"; c #030301",
": c #040401",
"> c #070702",
", c #050502",
"< c #0C0C0B",
"1 c #010101",
"2 c #403C10",
"3 c gray4",
"4 c gray7",
"5 c #131313",
"6 c #1F1D07",
"7 c #111111",
"8 c gray1",
"9 c #12110A",
"0 c #0A0902",
"q c #27240A",
"w c #151515",
"e c #040404",
"r c #211E06",
"t c #111006",
"y c gray3",
"u c #221F08",
"i c #121107",
"p c #121211",
"a c #090909",
"s c #070707",
"d c #0E0E0E",
"f c #151405",
"g c #332F0C",
"h c #25230B",
"j c #070706",
"k c #1C1B0D",
"l c #121109",
"z c #151305",
"x c #060606",
"c c gray2",
"v c #0A0A0B",
"b c #1D1C0E",
"n c #13130B",
"m c #202020",
"M c #161616",
"N c #312D0C",
"B c #211E08",
"V c #111007",
"C c #0C0C0C",
"Z c #141310",
"A c #0E0E0A",
"S c #222009",
"D c #181813",
"F c #090907",
"G c #1F1D08",
"H c #1D1D1C",
"J c #181818",
"K c #060503",
"L c #040300",
"P c #0E0D0B",
"I c #060605",
"U c #0B0B0C",
"Y c gray9",
/* pixels */
"          .XX....XXXXXXX.....XXX.XX..XXXXXXXXXXXXXXXXX.X.X.XXXXX",
"          ..X.....XXX.XX.....XXXXXX...XXXXXXXXXXXXXXXXXXX.X.XXXX",
"          ..X.....XXXXXXX..X.XXXXXX...  XXXXXXXXXXXXXXXXX.X.XXXX",
"          ..XX..X.XX                     oXXXXXXXXXXXXXXXX.X.XXX",
"          ..XX.....XX                     XXXXXXXXXXXXXXXX...XXX",
"          ..XXX..X.X   OO++O++O++OO++OO    XXXXXXXXXXXXXXXX...XX",
"          ..XXX.   X   @###############@   XXXXXXXXXXXXXXXX...XX",
"          ..X        $$$$$$$$$$$$$$$$$$$$$        XXXXXXXXXX...X",
"          ...        $$$$$$$$$$$$$$$$$$$$$        XXXXXXXXXXX.X.",
"          ..X       %$$&&&&&&&&&&&&&&&&&$$*    =  XXXXXX.XXXXX..",
"           .X  -;:::>$$&&&&&&&&&&&&&&&&&$$,:::;<   XXXXXX.XXXX.X",
"         1    $$$$$$2$$&&&&&&&&&&&&&&&&&$$$$$$$$$    XXXX.XXXXX.",
"         3    $$$$$$$$$&&&&&&&&&&&&&&&&&$$$$$$$$$    4XXXXXXXXX.",
"         5    $$$&&&&&&&&&&&&&&&&&&&&&&&&&&&&&$$$6 7 5XXXX.XXXXX",
"       +8  90 $$&&&&&&&&&&&&&&&&&&&&&&&&&&&&&&&$$q    X7XXX.XXXX",
"     1  w $$$$$$&&&&&&&&&&&&&&&&&&&&&&&&&&&&&&&$$$$$$    XX.XXXX",
"     e    $$$$$$$$$$$$$$$$$$$$$$$$$$$$$$$$$$$$$&$$$$$    4X.XXXX",
"         r$$$&&$$$$$$$$$$$$$$$$$$$$$$$$$$$$$$$$$&&$$$t   5XX.XXX",
"     y   u$$&&&$$$$$$$$$$$$$$$$$$$$$$$$$$$$$$$$$&&&$$i   4XX.XXX",
"     y 7 u$$&&&$$$$$$$$$$$$$$$$$$$$$$$$$$$$$$$$$&&&$$i   7XXXXXX",
"     y p u$$&&&&&&&&&&&&&&&&&&&&&&&&&&&&&&$$$$$$&&&$$i   7XXX.XX",
"     a 7 u$$&&&&&&&&&&&&&&&&&&&&&&&&&&&&&$$$$$&&&&&$$i   7XXX.XX",
"  sd.   fg$$&&&&&&&&&&&&&&&&&&&&&&&&&&&&&$$$$$&&&&&$$h      4.XX",
" 8    $$$$$$&&&&&&&&&&&&&&&&&&&&&&&&&&&$$$$$$&&&&&&$$$$$$    X.X",
" a  jk$$$$$&&&&&&&&&&&&&&&&&&&&&&&&&&&&$$$$$$&&&&&&&$$$$$l-  X.X",
" a   z$$&&&&&&&&&&&&&&&&&&&&&&&&&&&&&&$$$$$&&&&&&&&&&&&$$0   X.X",
" s   z$$&&&&&&&&&&&&&&&&&&&&&&&&&&&&$$$$$$$&&&&&&&&&&&&$$0   XXX",
" a   z$$&&&&&&&&&&&&&&&&&&&&&&&&&&&&$$$$$$&&&&&&&&&&&&&$$0   XX.",
" 3   z$$&&&&&&&&&&&&&&&&&&&&&&&&&&$$$$$$$$&&&&&&&&&&&&&$$0   XX.",
" y   z$$&&&&&&&&&&&&&&&&&&&&&&&&&$$$$$$$&&&&&&&&&&&&&&&$$0   XXX",
" y   z$$&&&&&&&&&&&&&&&&&&&&&&&$$$$$$$$&&&&&&&&&&&&&&&&$$0   XXX",
" a   z$$&&&&&&&&&&&&&&&&&&&&&$$$$$$$$$$&&&&&&&&&&&&&&&&$$0   XXX",
" x   z$$&&&&&&&&&&&&&&&&&&&&$$$$$$$$$&&&&&&&&&&&&&&&&&&$$0   XXX",
" x   z$$&&&&&&&&&&&&&&&&&&$$$$$$$$$$&&&&&&&&&&&&&&&&&&&$$0   XXX",
" y   z$$&&&&&&&&&&&&&&&&&$$$$$$$$$&&&&&&&&&&&&&&&&&&&&&$$0   XXX",
" c   z$$&&&&&&&&&&&&&&&&$$$$$$$$&&&&&&&&&&&&&&&&&&&&&&&$$0   XXX",
" e   z$$&&&&&&&&&&&&&&$$$$$$$$$&&&&&&&&&&&&&&&&&&&&&&&&$$0   XXX",
" s   z$$&&&&&&&&&&&&&$$$$$$$$&&&&&&&&&&&&&&&&&&&&&&&&&&$$0   XXX",
" c   z$$&&&&&&&&&&&$$$$$$$$&&&&&&&&&&&&&&&&&&&&&&&&&&&&$$0   XXX",
" 8   f$$&&&&&&&&&&$$$$$$$$&&&&&&&&&&&&&&&&&&&&&&&&&&&&&$$0   XXX",
" x   z$$&&&&&&&&&$$$$$$&&&&&&&&&&&&&&&&&&&&&&&&&&&&&&&&$$0   XXX",
" x  vb$$$$$&&&&$$$$$$&&&&&&&&&&&&&&&&&&&&&&&&&&&&&&&$$$$$n   XXX",
" +m   $$$$$$&&&$$$$$$$$$$$$$$$$$$$$$$$$$$$$$$$$$&&&$$$$$$    XXX",
"  3wM     $$&&&$$$$$$$$$$$$$$$$$$$$$$$$$$$$$$$$$&&&$$N       XXX",
"     = 7 B$$&&&$$$$$$$$$$$$$$$$$$$$$$$$$$$$$$$$$&&&$$V   7X XXXX",
"     C 7 u$$&&&$$$$$$$$$$$$$$$$$$$$$$$$$$$$$$$$$&&&$$i   XXXXXXX",
"     = 7  $$&&&&&&&&&&&&&&&&&&&&&&&&&&&&&&&&&&&&&&&$$i   XXXXXXX",
"     = 7  $$&&&&&&&&&&&&&&&&&&&&&&&&&&&&&&&&&&&&&&&$$i   7XXXXXX",
"     =    $$&&&&&&&&&&&&&&&&&&&&&&&&&&&&&&&&&&&&&&&$$    4XXXXXX",
"     3  Z $$$$$&&&&&&&&&&&&&&&&&&&&&&&&&&&&&&&&&$$$$$    7XXXXXX",
"     c    $$$$$$&&&&&&&&&&&&&&&&&&&&&&&&&&&&&&&$$$$$$    XXXXXXX",
"           A: $$&&&&&&&&&&&&&&&&&&&&&&&&&&&&&&&$$S:D  XXXXXXXXXX",
"           F  $$&&&&&&&&&&&&&&&&&&&&&&&&&&&&&&&$$G 4 MXXXXXXXXXX",
"         4 HJ $$$$$$$$$$$$$$$$$$$$$$$$$$$$$$$$$$$    JXXXXXXXXXX",
"         x    $$$$$$$$$$$$$$$$$$$$$$$$$$$$$$$$$$$    4XXXXXXXXXX",
"          ...         $$$$$$$$$$$$$$$$$$$ K%%%LP  XXXXXXXXXXXXXX",
"          ...  I*111e                     +111*U  XXXXXXXXXXXXXX",
"          ...                                     XXXXXXXXXXXXXX",
"          ...Y                                    XXXXXXXXXXXXXX",
"          ...XXXXXXX.  XXXXXXXXXXXXXXXXXXXXXXXXXXXXXXXXXXXXXXXXX",
"          ....XX.XXXX.XXXXXXXXXXXXXXXXXXXXXXXXXXXXXXXXXXXXXXXXXX",
"          ....XX.XXXX.XXXXXXXXXXXXXXXXXXXXXXXXXXXXXXXXXXXXXXXXXX",
"          ....XXXXXXXXXXXXXXXXXXXXXXXXXXXXXXXXXXXXXXXXXXXXXXXXXX",
"          .....XXXXXXXXXXXXXXXXXXXXXXXXXXXXXXXXXXXXXXXXXXXXXXXXX"
};
