/* XPM */
static char *result[] = {
/* columns rows colors chars-per-pixel */
"64 64 78 1 ",
"  c black",
". c #020202",
"X c #060606",
"o c gray1",
"O c gray2",
"+ c #070707",
"@ c #040404",
"# c gray3",
"$ c #090909",
"% c gray4",
"& c #202020",
"* c #151515",
"= c #0E0E0E",
"- c #161616",
"; c #0A0A0B",
": c #070706",
"> c gray5",
", c #0B0B0B",
"< c #0C0C0C",
"1 c #1D1C0E",
"2 c #151305",
"3 c #151405",
"4 c #1C1B0D",
"5 c #010101",
"6 c white",
"7 c #111111",
"8 c #121211",
"9 c #141310",
"0 c #709AD1",
"q c gray7",
"w c #221F08",
"e c #211E08",
"r c #332F0C",
"t c #211E06",
"y c #131313",
"u c #1D1D1C",
"i c #090907",
"p c #0E0E0A",
"a c #12110A",
"s c #101010",
"d c #181818",
"f c #040401",
"g c #0A0902",
"h c gray9",
"j c #060605",
"k c #080806",
"l c #010100",
"z c #030301",
"x c #403C10",
"c c #070702",
"v c #040301",
"b c #020100",
"n c #020201",
"m c #020200",
"M c #020203",
"N c #25220B",
"B c #242109",
"V c #242209",
"C c #0B0B0A",
"Z c gray8",
"A c #060503",
"S c #050502",
"D c #040300",
"F c #0B0B0C",
"G c #0E0D0B",
"H c #0C0C0B",
"J c #1F1D08",
"K c #222009",
"L c #27240A",
"P c #1F1D07",
"I c #181813",
"U c #121107",
"Y c #111007",
"T c #312D0C",
"R c #25230B",
"E c #111006",
"W c #13130B",
"Q c #121109",
/* pixels */
"                                                                ",
"                     .XXoO+@O#XX$##%$+$$o                       ",
"                    %&                   +                      ",
"                    *                    =                      ",
"                    - ;                : >                      ",
"             O%,,,<,  123222222222222224  $### @5               ",
"                     66666666666666666666                       ",
"                7777 66666666666666666666 787    .              ",
"              9      660000000000000000663      *o              ",
"         Xq       we 66000000000000000066rwwwwt   y%5           ",
">>>>>>>>>    666666666600000000000000006666666666     >>>>>>>>>>",
">>>>>>>>> uip666666666000000000000000000666666666a   >>>>>>>>>>s",
">>>>>>>>> d f660000000000000000000000000000000666g   ss>ssssssss",
">>>>sh       660000000000000000000000000000000066        ssss>>>",
">ssss    66666600000000000000000000000000000000666666    ss>>>>>",
"sssss  j 66666000066666000000000000000000000666666666k   >>>>>>>",
"ss>>s  l 66000000066666000000000000000000000666600666z    >>s>>>",
"sssss  5 66000000066666600000000000000000000666600066f    s>>>>s",
"sssss  5 66000000066666660000000000000000000666600066f    >>ssss",
"sssss  5 66000000066666666000000000000000000666600066f   sssssss",
"ssss>  @ 6600000006666666600000000000000000066660006xcv    s sss",
"ss>>     660000000666606666000000000000000006666000666666    s>s",
"ssss     660000000666606666600000000000000006666000666666    sss",
"sssssssss660000000666600666600000000000000006666000000066bn  sss",
"ssssssss>660000000666600666660000000000000006666000000066mn  s>>",
"ssssss>ss666666000666600066666000000000000006666000000066m.  >>>",
"sssssssss666666666666660066666600000000000006666000000066m.  >>>",
"sssssssss666666666666666666666000000000000006666000000066mn  s>>",
"sssssssssssssss> 6666666666666666666660000006666000000066m.  >>>",
"ssssssssssssssssy      6666666666666666000006666000000066m.  sss",
"sssssssssssssssss            6666666666600006666000000066mn  sss",
"sssssssssssssssss             M      66600006666000000066m.  sss",
"sssssssssssssssss             NBVVVVV66600006666000000066m.  ss>",
"ssssssssssssssss             6666666666000006666000000066mn  sss",
"sssssssssssssss    C,,,6666666666666666000006666000000066mn  sss",
"ssssssssss     s 6666666666666666666000000006666000000066m.  >>>",
"ssssssss 666666666666666666666066666660000006666000000066m.  >>>",
"ssssssss 666666666666666000000006666660000006666000000066mn  >>s",
"ssssssss 666666660666600000000006666666000006666000000066mn   ss",
"sssssssss660000000666600000000000066666660006666000000066b    ss",
"sssss    660000000666600000000000006666660006666000666666    sss",
"sssss    660000000666600000000000006666666606666000666666   Zsss",
"sssss  .A66000000066660000000000000006666666666600066Sl    sssss",
"sssss  5v66000000066660000000000000000066666666600066f   sssssss",
"sssss  5v66000000066660000000000000000066666666600066f   sssssss",
"sssss  5v66000000066660000000000000000000666666600066f   sssssss",
"sssss  lD66000000066660000000000000000000006666600666z   sssssss",
"sssss  FG66666000066660000000000000000000006666066666H,  sssssss",
"sssss    66666600000000000000000000000000000000666666    sssssss",
"sssss      JK660000000000000000000000000000000066LP      sssssss",
"sssssssss   f660000000000000000000000000000000666     ssssssssss",
"sssssssss  qI666666666000000000000000000666666666 7  sssssssssss",
"sssssssss    666666666600000000000000006666666666    sssssssssss",
"sssssssssqd-    UUUYT66000000000000000066RUUUUE   yqssssssssssss",
"sssssssssssss        66000000000000000066        ssssssssssssss>",
"sssssssssssss        66666666666666666666        7ssssssssssssss",
"sssssssssssss        66666666666666666666        sssss>ssssssss>",
"ssssssssssssss7q7ss7  WggggggggggggggggQ  777qyqssss>>sssssss>>s",
"ssssssssssssssssssss                   k  ssssssss>ssssssss>>ss>",
"sssssssssssssssssss                       sssss>>>sssssss>>>s>>s",
"ssssssssssssssssssss                     qsss>>sssssssss>>>>>sss",
"sssssssssssssssssssssssssssssssssssssssss>>>sssssssssss>>>>sssss",
"ssssssssssssssssssssssssssssssssssssss>>>ssssssssssss>>s>sssssss",
"sssssssssssssssssssssssssssssssssss>>ssssssssssssss>>s>>ssssssss"
};
