/* XPM */
static char *_0ade548574547f380f01db572d8d499eklit24bNr97lGNc[] = {
/* columns rows colors chars-per-pixel */
"64 64 89 1 ",
"  c black",
". c #020202",
"X c #060606",
"o c gray1",
"O c gray2",
"+ c #070707",
"@ c #040404",
"# c gray3",
"$ c #090909",
"% c gray4",
"& c #202020",
"* c #151515",
"= c #0E0E0E",
"- c #161616",
"; c #0A0A0B",
": c #070706",
"> c gray5",
", c #0B0B0B",
"< c #0C0C0C",
"1 c #1D1C0E",
"2 c #151305",
"3 c #151405",
"4 c #1C1B0D",
"5 c #010101",
"6 c white",
"7 c #111111",
"8 c #121211",
"9 c #141310",
"0 c #709AD1",
"q c gray7",
"w c #221F08",
"e c #211E08",
"r c #332F0C",
"t c #211E06",
"y c #131313",
"u c #1D1D1C",
"i c #090907",
"p c #0E0E0A",
"a c #12110A",
"s c #101010",
"d c #181818",
"f c #040401",
"g c #0A0902",
"h c gray9",
"j c #060605",
"k c #080806",
"l c #010100",
"z c #030301",
"x c #403C10",
"c c #070702",
"v c #040301",
"b c #020100",
"n c #020201",
"m c #090908",
"M c #020200",
"N c #151407",
"B c #141204",
"V c #141205",
"C c #1B1907",
"Z c #020203",
"A c #25220B",
"S c #242109",
"D c #242209",
"F c #2A270B",
"G c #0B0B0A",
"H c #111110",
"J c #040402",
"K c #030302",
"L c #181707",
"P c #161505",
"I c gray8",
"U c #060503",
"Y c #050502",
"T c #040300",
"R c #0B0B0C",
"E c #0E0D0B",
"W c #0C0C0B",
"Q c #1F1D08",
"! c #222009",
"~ c #27240A",
"^ c #1F1D07",
"/ c #181813",
"( c #121107",
") c #111007",
"_ c #312D0C",
"` c #25230B",
"' c #111006",
"] c #13130B",
"[ c #121109",
/* pixels */
"                                                                ",
"                     .XXoO+@O#XX$##%$+$$o                       ",
"                    %&                   +                      ",
"                    *                    =                      ",
"                    - ;                : >                      ",
"             O%,,,<,  123222222222222224  $### @5               ",
"                     66666666666666666666                       ",
"                7777 66666666666666666666 787    .              ",
"              9      660000000000000000663      *o              ",
"         Xq       we 66000000000000000066rwwwwt   y%5           ",
">>>>>>>>>    666666666600000000000000006666666666     >>>>>>>>>>",
">>>>>>>>> uip666666666000000000000000000666666666a   >>>>>>>>>>s",
">>>>>>>>> d f660000000000000000000000000000000666g   ss>ssssssss",
">>>>sh       660000000000000000000000000000000066        ssss>>>",
">ssss    66666600000000000000000000000000000000666666    ss>>>>>",
"sssss  j 66666000066666000000000000000000000666666666k   >>>>>>>",
"ss>>s  l 66000000066666000000000000000000000666600666z    >>s>>>",
"sssss  5 66000000066666600000000000000000000666600066f    s>>>>s",
"sssss  5 66000000066666660000000000000000000666600066f    >>ssss",
"sssss  5 66000000066666666000000000000000000666600066f   sssssss",
"ssss>  @ 6666666606666666600000000000000000066660006xcv    s sss",
"ss>>     666666666666606666000000000000000006666000666666    s>s",
"ssss             6666606666600000000000000006666000666666    sss",
"sssssssss d      6666600666600000000000000006666000000066bn  sss",
"ssssssss>  mm$m# 6666666666660000000000000006666000000066Mn  s>>",
"ssssss>ss        6666666666666000000000000006666000000066M.  >>>",
"sssssssss                    6600000000000006666000000066M.  >>>",
"ssssssssssssssss  s          6000000000000006666000000066Mn  s>>",
"sssssssssssssss>           - 6666666666660006666000000066M.  >>>",
"ssssssssssssssssy            6666666666666006666000000066M.  sss",
"sssssssssssssssss             NBVVVVVVVC66006666000000066Mn  sss",
"sssssssssssssssss             Z        c66006666000000066M.  sss",
"sssssssssssssssss             ASDDDDDDSF66006666000000066M.  ss>",
"ssssssssssssssss             6666666666666006666000000066Mn  sss",
"sssssssssssssss    G,,,,,,,, 6666666666660006666000000066Mn  sss",
"ssssssssss     s  H          6666666000000006666000000066M.  >>>",
"ssssssss                     6066666660000006666000000066M.  >>>",
"ssssssss         6666666666666006666660000006666000000066Mn  >>s",
"ssssssss   JJJJKL6666666666660006666666000006666000000066Mn   ss",
"sssssssss h     P6666600000000000066666660006666000000066b    ss",
"sssss     66666666666600000000000006666660006666000666666    sss",
"sssss    666666666666600000000000006666666606666000666666   Isss",
"sssss  .U66000000066660000000000000006666666666600066Yl    sssss",
"sssss  5v66000000066660000000000000000066666666600066f   sssssss",
"sssss  5v66000000066660000000000000000066666666600066f   sssssss",
"sssss  5v66000000066660000000000000000000666666600066f   sssssss",
"sssss  lT66000000066660000000000000000000006666600666z   sssssss",
"sssss  RE66666000066660000000000000000000006666066666W,  sssssss",
"sssss    66666600000000000000000000000000000000666666    sssssss",
"sssss      Q!660000000000000000000000000000000066~^      sssssss",
"sssssssss   f660000000000000000000000000000000666     ssssssssss",
"sssssssss  q/666666666000000000000000000666666666 7  sssssssssss",
"sssssssss    666666666600000000000000006666666666    sssssssssss",
"sssssssssqd-    ((()_66000000000000000066`(((('   yqssssssssssss",
"sssssssssssss        66000000000000000066        ssssssssssssss>",
"sssssssssssss        66666666666666666666        7ssssssssssssss",
"sssssssssssss        66666666666666666666        sssss>ssssssss>",
"ssssssssssssss7q7ss7  ]gggggggggggggggg[  777qyqssss>>sssssss>>s",
"ssssssssssssssssssss                   k  ssssssss>ssssssss>>ss>",
"sssssssssssssssssss                       sssss>>>sssssss>>>s>>s",
"ssssssssssssssssssss                     qsss>>sssssssss>>>>>sss",
"sssssssssssssssssssssssssssssssssssssssss>>>sssssssssss>>>>sssss",
"ssssssssssssssssssssssssssssssssssssss>>>ssssssssssss>>s>sssssss",
"sssssssssssssssssssssssssssssssssss>>ssssssssssssss>>s>>ssssssss"
};
