/* XPM */
static char *d792d0c8a3de45f7f43b2fe564d8db0d08DmHONpCqUWPHL4[] = {
/* columns rows colors chars-per-pixel */
"64 64 35 1 ",
"  c black",
". c gray1",
"X c #040301",
"o c #040401",
"O c #040404",
"+ c #0A0902",
"@ c #090907",
"# c #0B0B0B",
"$ c #0C0C0B",
"% c #0B0B0C",
"& c gray5",
"* c #121107",
"= c #151305",
"- c #151405",
"; c #1F1D07",
": c #121109",
"> c #1F1D08",
", c #1C1B0D",
"< c #1D1C0E",
"1 c #101010",
"2 c #141310",
"3 c gray8",
"4 c #181813",
"5 c #181818",
"6 c #1D1D1C",
"7 c #211E06",
"8 c #221F08",
"9 c #222009",
"0 c #25230B",
"q c #27240A",
"w c #312D0C",
"e c #202020",
"r c #403C10",
"t c #709AD1",
"y c white",
/* pixels */
"11111111&&1&&11111111111111&&11111111111111111111111111111111111",
"1111111&1&&111111111111&&&11111111111111111111111111111111111111",
"11111&&&&11111111111&&&11111111111111111111111111111111111111111",
"111&&&&&111111111&&1111                     11111111111111111111",
"1&&1&&&1111111&&&11111                       1111111111111111111",
"&11&&11111111&11111111  #                   11111111111111111111",
"1&&1111111&&1111133111  :++++++++++++++++:  11111111111111111111",
"&11111111&11111        yyyyyyyyyyyyyyyyyyyy        1111111111111",
"111111111111111        yyyyyyyyyyyyyyyyyyyy        1111111111111",
"&11111111111111        yyttttttttttttttttyy        1111111111111",
"11111111111131   *****0yyttttttttttttttttyyw****    551111111111",
"11111111111    yyyyyyyyyyttttttttttttttttyyyyyyyyyy    111111111",
"11111111111  1 yyyyyyyyyttttttttttttttttttyyyyyyyyy41  111111111",
"1111111111     yyytttttttttttttttttttttttttttttttyyo   111111111",
"1111111      ;qyyttttttttttttttttttttttttttttttttyy9>      11111",
"1111111    yyyyyyttttttttttttttttttttttttttttttttyyyyyy    11111",
"1111111  #$yyyyytyyyytttttttttttttttttttttyyyyttttyyyyy$$  11111",
"1111111    yyyttyyyyytttttttttttttttttttttyyyytttttttyyX   11111",
"1111111   oyytttyyyyyyytttttttttttttttttttyyyytttttttyyX   11111",
"1111111   oyytttyyyyyyyyytttttttttttttttttyyyytttttttyyX   11111",
"1111111   oyytttyyyyyyyyytttttttttttttttttyyyytttttttyyX   11111",
"11111     oyytttyyyyyyyyyyytttttttttttttttyyyytttttttyyoO  11111",
"1113   yyyyyytttyyyytyyyyyyyytttttttttttttyyyytttttttyy    11111",
"111    yyyyyytttyyyytttyyyyyytttttttttttttyyyytttttttyyy   11111",
"11     yytttttttyyyytttyyyyyyyttttttttttttyyyytttttttyyy   11111",
"11   ooyytttttttyyyytttttyyyyyyyttttttttttyyyytttttttyyy   11111",
"1&&    yytttttttyyyyttttttyyyyyyttttttttttyyyytttttttyyy   11111",
"&&&  o yytttttttyyyyttttttyyyyyyytttttttttyyyytttttttyyy   11111",
"&&&    yytttttttyyyyttttttttyyyyyyttttttttyyyytttttttyyy   11111",
"111    yytttttttyyyyttttttttyyyyyyttttttttyyyytttttttyyy   11111",
"111   oyytttttttyyyytttttttttyyyyyytttttttyyyytttttttyyy   11111",
"&11  O yytttttttyyyyttttttttttyyyyytttttttyyyytttttttyyy   11111",
"111    yytttttttyyyyttttttttttyyyyyyttttttyyyytttttttyyy   11111",
"111  o yytttttttyyyytttttttttttyyyyyytttttyyyytttttttyyy   11111",
"111  o yytttttttyyyytttttttttttyyyyyytttttyyyytttttttyyy   11111",
"&&&    yytttttttyyyyttttttttttttyyyyyyttttyyyytttttttyyy   11111",
"&&1   oyytttttttyyyytttttttttttttyyyyyttttyyyytttttttyyy   11111",
"&&&  o yytttttttyyyytttttttttttttyyyyyytttyyyytttttttyyy   11111",
"&&&    yytttttttyyyyttttttttttttttyyyyyyttyyyytttttttyyy   11111",
"&&1  o yytttttttyyyytttttttttttttttyyyyyttyyyytttttttyyy   11111",
"111   oyytttttttyyyyttttttttttttttttyyyyttyyyytttttttyyy   11111",
"111    yyyyyytttyyyyttttttttttttttttyyyyytyyyytttttttyyy    1111",
"1&1    yyyyyytttyyyytttttttttttttttttyyyytyyyytttttttyy     &&11",
"111 1    oorytttyyyyttttttttttttttttttyyyyyyyytttttttyy O  &1111",
"1111111   oyytttyyyyttttttttttttttttttyyyyyyyytttttttyy    11111",
"1111&&    oyytttyyyytttttttttttttttttttyyyyyyytttttttyy    11111",
"1&&&&1    oyytttyyyyttttttttttttttttttttyyyyyytttttttyy    11111",
"&&&1&&     yyyttyyyytttttttttttttttttttttyyyyytttttttyy    1&&11",
"&&&&&&&   @yyyyyyyyytttttttttttttttttttttyyyyyttttyyyyy O  11111",
"&&&&&11    yyyyyyttttttttttttttttttttttttttttttttyyyyyy    1111&",
"&&&1111        yyttttttttttttttttttttttttttttttttyy       51&&&&",
"11111111&11   +yyytttttttttttttttttttttttttttttttyyo 5 &&&&&&&&&",
"1&&&&&&&&&&   :yyyyyyyyyttttttttttttttttttyyyyyyyyy$@6 &&&&&&&&&",
"&&&&&&&&&&     yyyyyyyyyyttttttttttttttttyyyyyyyyyy    &&&&&&&&&",
"            &1   78888wyyttttttttttttttttyy 88       1@         ",
"              O3      -yyttttttttttttttttyy      2              ",
"                   111 yyyyyyyyyyyyyyyyyyyy 1111                ",
"                       yyyyyyyyyyyyyyyyyyyy                     ",
"                O O###  ,==============--<  &&##&#O             ",
"                      & O                % 3                    ",
"                      &                    3                    ",
"                      #                   e#                    ",
"                        ######O#O##OOOOOO#                      ",
"                                                                "
};
