/* XPM */
static char *result[] = {
/* columns rows colors chars-per-pixel */
"64 64 78 1 ",
"  c black",
". c gray5",
"X c #101010",
"o c gray8",
"O c #020201",
"+ c #020202",
"@ c #020100",
"# c #020200",
"$ c white",
"% c #040301",
"& c #709AD1",
"* c #010100",
"= c #0B0B0B",
"- c #080806",
"; c #030301",
": c #040401",
"> c #070702",
", c #050502",
"< c #0C0C0B",
"1 c #010101",
"2 c #403C10",
"3 c gray4",
"4 c gray7",
"5 c #131313",
"6 c #1F1D07",
"7 c #111111",
"8 c gray1",
"9 c #12110A",
"0 c #0A0902",
"q c #27240A",
"w c #151515",
"e c #040404",
"r c #211E06",
"t c #111006",
"y c gray3",
"u c #221F08",
"i c #121107",
"p c #121211",
"a c #090909",
"s c #070707",
"d c #0E0E0E",
"f c #151405",
"g c #332F0C",
"h c #25230B",
"j c #070706",
"k c #1C1B0D",
"l c #121109",
"z c #151305",
"x c #242209",
"c c #060606",
"v c #242109",
"b c #020203",
"n c #25220B",
"m c gray2",
"M c #0A0A0B",
"N c #1D1C0E",
"B c #13130B",
"V c #202020",
"C c #161616",
"Z c #312D0C",
"A c #211E08",
"S c #0B0B0A",
"D c #111007",
"F c #0C0C0C",
"G c #141310",
"H c #0E0E0A",
"J c #222009",
"K c #181813",
"L c #090907",
"P c #1F1D08",
"I c #1D1D1C",
"U c #181818",
"Y c #060503",
"T c #040300",
"R c #0E0D0B",
"E c #060605",
"W c #0B0B0C",
"Q c gray9",
/* pixels */
"          .XX....XXXXXXX.....XXX.XX..XXXXXXXXXXXXXXXXX.X.X.XXXXX",
"          ..X.....XXX.XX.....XXXXXX...XXXXXXXXXXXXXXXXXXX.X.XXXX",
"          ..X.....XXXXXXX..X.XXXXXX...  XXXXXXXXXXXXXXXXX.X.XXXX",
"          ..XX..X.XX                     oXXXXXXXXXXXXXXXX.X.XXX",
"          ..XX.....XX                     XXXXXXXXXXXXXXXX...XXX",
"          ..XXX..X.X   OO++O++O++OO++OO    XXXXXXXXXXXXXXXX...XX",
"          ..XXX.   X   @###############@   XXXXXXXXXXXXXXXX...XX",
"          ..X        $$$$$$$$$$$$$$$$$$$$$        XXXXXXXXXX...X",
"          ...        $$$$$$$$$$$$$$$$$$$$$        XXXXXXXXXXX.X.",
"          ..X       %$$&&&&&&&&&&&&&&&&&$$*    =  XXXXXX.XXXXX..",
"           .X  -;:::>$$&&&&&&&&&&&&&&&&&$$,:::;<   XXXXXX.XXXX.X",
"         1    $$$$$$2$$&&&&&&&&&&&&&&&&&$$$$$$$$$    XXXX.XXXXX.",
"         3    $$$$$$$$$&&&&&&&&&&&&&&&&&$$$$$$$$$    4XXXXXXXXX.",
"         5    $$$&&&&&&&&&&&&&&&&&&&&&&&&&&&&&$$$6 7 5XXXX.XXXXX",
"       +8  90 $$&&&&&&&&&&&&&&&&&&&&&&&&&&&&&&&$$q    X7XXX.XXXX",
"     1  w $$$$$$&&&&&&&&&&&&&&&&&&&&&&&&&&&&&&&$$$$$$    XX.XXXX",
"     e    $$$$$$$$$$$$$$$$$$$$$$$$$$$$$$$$$$$$$&$$$$$    4X.XXXX",
"         r$$$&&$$$$$$$$$$$$$$$$$$$$$$$$$$$$$$$$$&&$$$t   5XX.XXX",
"     y   u$$&&&$$$$$$$$$$$$$$$$$$$$$$$$$$$$$$$$$&&&$$i   4XX.XXX",
"     y 7 u$$&&&$$$$$$$$$$$$$$$$$$$$$$$$$$$$$$$$$&&&$$i   7XXXXXX",
"     y p u$$&&&&&&&&&&&&&&&&&&&&&&&&&&&&&&$$$$$$&&&$$i   7XXX.XX",
"     a 7 u$$&&&&&&&&&&&&&&&&&&&&&&&&&&&&&$$$$$&&&&&$$i   7XXX.XX",
"  sd.   fg$$&&&&&&&&&&&&&&&&&&&&&&&&&&&&&$$$$$&&&&&$$h      4.XX",
" 8    $$$$$$&&&&&&&&&&&&&&&&&&&&&&&&&&&$$$$$$&&&&&&$$$$$$    X.X",
" a  jk$$$$$&&&&&&&&&&&&&&&&&&&$$$&&&&&&$$$$$$&&&&&&&$$$$$l-  X.X",
" a   z$$&&&&&&&&&&&&&&&&&&&&&$$$$$$&&&$$$$$&&&&&&&&&&&&$$0   X.X",
" s   z$$&&&&&&&&&&&&&&&&&&&&$$$$$$$&$$$$$$$&&&&&&&&&&&&$$0   XXX",
" a   z$$&&&&&&&&&&&&&&&&&&&&$$$ x$$&$$$$$$&&&&&&&&&&&&&$$0   XX.",
" 3   z$$&&&&&&&&&&&&&&&&&&&&$$$ x$$$$$$$$$&&&&&&&&&&&&&$$0   XX.",
" y   z$$&&&&&&&&&&&&&&&&&&&&$$$ x$$$$$$$&&&&&&&&&&&&&&&$$0   XXX",
" y   z$$&&&&&&&&&&&&&&&&&&&&$$$ x$$$$$$&&&&&&&&&&&&&&&&$$0   XXX",
" a   z$$&&&&&&&&&&&&&&&&&&&&$$$ x$$$$$$&&&&&&&&&&&&&&&&$$0   XXX",
" c   z$$&&&&&&&&&&&&&&&&&&&&$$$ v$$$$&&&&&&&&&&&&&&&&&&$$0   XXX",
" c   z$$&&&&&&&&&&&&&&&&&&$&$$$bn$$$&&&&&&&&&&&&&&&&&&&$$0   XXX",
" y   z$$&&&&&&&&&&&&&&&&&$$$$$$  $$$$&&&&&&&&&&&&&&&&&&$$0   XXX",
" m   z$$&&&&&&&&&&&&&&&&$$$$$$    $$$&&&&&&&&&&&&&&&&&&$$0   XXX",
" e   z$$&&&&&&&&&&&&&&$$$$$$$$    $$$&&&&&&&&&&&&&&&&&&$$0   XXX",
" s   z$$&&&&&&&&&&&&&$$$$$$$$$    $$$&&&&&&&&&&&&&&&&&&$$0   XXX",
" m   z$$&&&&&&&&&&&$$$$$$$$$$$    $$$&&&&&&&&&&&&&&&&&&$$0   XXX",
" 8   f$$&&&&&&&&&&$$$$$$$&&$$$    $$$&&&&&&&&&&&&&&&&&&$$0   XXX",
" c   z$$&&&&&&&&&$$$$$$&&&&$$$    $$$$&&&&&&&&&&&&&&&&&$$0   XXX",
" c  MN$$$$$&&&&$$$$$$&&&&&$$$     =$$$&&&&&&&&&&&&&&$$$$$B   XXX",
" +V   $$$$$$&&&$$$$$$$$$$$$$$     =$$$$$$$$$$$$$&&&$$$$$$    XXX",
"  3wC     $$&&&$$$$$$$$$$$$$$     =$$$$$$$$$$$$$&&&$$Z       XXX",
"     = 7 A$$&&&$$$$$$$$$$$$$$     S$$$$$$$$$$$$$&&&$$D   7X XXXX",
"     F 7 u$$&&&$$$$$$$$$$$$$$      $$$$$$$$$$$$$&&&$$i   XXXXXXX",
"     = 7  $$&&&&&&&&&&&&&&$$$      $$$&&&&&&&&&&&&&$$i   XXXXXXX",
"     = 7  $$&&&&&&&&&&&&&&$$ 5XXX   $$$&&&&&&&&&&&&$$i   7XXXXXX",
"     =    $$&&&&&&&&&&&&&&$$.XXXXX X$$$&&&&&&&&&&&&$$    4XXXXXX",
"     3  G $$$$$&&&&&&&&&&$$$XXXXXXX $$$&&&&&&&&&$$$$$    7XXXXXX",
"     m    $$$$$$&&&&&&&&&$$$XXXXXXX $$$&&&&&&&&$$$$$$    XXXXXXX",
"           H: $$&&&&&&&&&$$$XXXXXXX $$$&&&&&&&&$$J:K  XXXXXXXXXX",
"           L  $$&&&&&&&&&$$$XXXXXXX $$$&&&&&&&&$$P 4 CXXXXXXXXXX",
"         4 IU $$$$$$$$$$$$$$XXXXXXX $$$$$$$$$$$$$    UXXXXXXXXXX",
"         c    $$$$$$$$$$$$$$XXXXXXXX$$$$$$$$$$$$$    4XXXXXXXXXX",
"          ...          X.XXXXXXXXXXX   X  Y%%%TR  XXXXXXXXXXXXXX",
"          ...  E*111e  XXXXXXXXXXXXXXXXX  +111*W  XXXXXXXXXXXXXX",
"          ...          XX.XXXXXXXXXXXXXX          XXXXXXXXXXXXXX",
"          ...Q         XXXXXXXXXXXXXXXXX          XXXXXXXXXXXXXX",
"          ...XXXXXXX.  XXXXXXXXXXXXXXXXXXXXXXXXXXXXXXXXXXXXXXXXX",
"          ....XX.XXXX.XXXXXXXXXXXXXXXXXXXXXXXXXXXXXXXXXXXXXXXXXX",
"          ....XX.XXXX.XXXXXXXXXXXXXXXXXXXXXXXXXXXXXXXXXXXXXXXXXX",
"          ....XXXXXXXXXXXXXXXXXXXXXXXXXXXXXXXXXXXXXXXXXXXXXXXXXX",
"          .....XXXXXXXXXXXXXXXXXXXXXXXXXXXXXXXXXXXXXXXXXXXXXXXXX"
};
