/* XPM */
static char *bcd5bfad3e5a4401a9bcb6d444181502KY5bAMuTOz5Dzvcb[] = {
/* columns rows colors chars-per-pixel */
"64 64 89 1 ",
"  c black",
". c gray5",
"X c #101010",
"o c gray8",
"O c #020201",
"+ c #020202",
"@ c #020100",
"# c #020200",
"$ c white",
"% c #040301",
"& c #709AD1",
"* c #010100",
"= c #0B0B0B",
"- c #080806",
"; c #030301",
": c #040401",
"> c #070702",
", c #050502",
"< c #0C0C0B",
"1 c #010101",
"2 c #403C10",
"3 c gray4",
"4 c gray7",
"5 c #131313",
"6 c #1F1D07",
"7 c #111111",
"8 c gray1",
"9 c #12110A",
"0 c #0A0902",
"q c #27240A",
"w c #151515",
"e c #040404",
"r c #211E06",
"t c #111006",
"y c gray3",
"u c #221F08",
"i c #121107",
"p c #121211",
"a c #090909",
"s c #070707",
"d c #0E0E0E",
"f c #151405",
"g c #332F0C",
"h c #25230B",
"j c #070706",
"k c #1C1B0D",
"l c #1B1907",
"z c #2A270B",
"x c #121109",
"c c #151305",
"v c #141205",
"b c #242109",
"n c #242209",
"m c #060606",
"M c #141204",
"N c #151407",
"B c #020203",
"V c #25220B",
"C c gray2",
"Z c #161616",
"A c #0A0A0B",
"S c #1D1C0E",
"D c #13130B",
"F c #202020",
"G c #312D0C",
"H c #211E08",
"J c #0B0B0A",
"K c #111007",
"L c #0C0C0C",
"P c #111110",
"I c #181707",
"U c #161505",
"Y c #030302",
"T c #141310",
"R c #090908",
"E c #040402",
"W c #0E0E0A",
"Q c #222009",
"! c #181813",
"~ c #090907",
"^ c #1F1D08",
"/ c #1D1D1C",
"( c #181818",
") c gray9",
"_ c #060503",
"` c #040300",
"' c #0E0D0B",
"] c #060605",
"[ c #0B0B0C",
/* pixels */
"          .XX....XXXXXXX.....XXX.XX..XXXXXXXXXXXXXXXXX.X.X.XXXXX",
"          ..X.....XXX.XX.....XXXXXX...XXXXXXXXXXXXXXXXXXX.X.XXXX",
"          ..X.....XXXXXXX..X.XXXXXX...  XXXXXXXXXXXXXXXXX.X.XXXX",
"          ..XX..X.XX                     oXXXXXXXXXXXXXXXX.X.XXX",
"          ..XX.....XX                     XXXXXXXXXXXXXXXX...XXX",
"          ..XXX..X.X   OO++O++O++OO++OO    XXXXXXXXXXXXXXXX...XX",
"          ..XXX.   X   @###############@   XXXXXXXXXXXXXXXX...XX",
"          ..X        $$$$$$$$$$$$$$$$$$$$$        XXXXXXXXXX...X",
"          ...        $$$$$$$$$$$$$$$$$$$$$        XXXXXXXXXXX.X.",
"          ..X       %$$&&&&&&&&&&&&&&&&&$$*    =  XXXXXX.XXXXX..",
"           .X  -;:::>$$&&&&&&&&&&&&&&&&&$$,:::;<   XXXXXX.XXXX.X",
"         1    $$$$$$2$$&&&&&&&&&&&&&&&&&$$$$$$$$$    XXXX.XXXXX.",
"         3    $$$$$$$$$&&&&&&&&&&&&&&&&&$$$$$$$$$    4XXXXXXXXX.",
"         5    $$$&&&&&&&&&&&&&&&&&&&&&&&&&&&&&$$$6 7 5XXXX.XXXXX",
"       +8  90 $$&&&&&&&&&&&&&&&&&&&&&&&&&&&&&&&$$q    X7XXX.XXXX",
"     1  w $$$$$$&&&&&&&&&&&&&&&&&&&&&&&&&&&&&&&$$$$$$    XX.XXXX",
"     e    $$$$$$$$$$$$$$$$$$$$$$$$$$$$$$$$$$$$$&$$$$$    4X.XXXX",
"         r$$$&&$$$$$$$$$$$$$$$$$$$$$$$$$$$$$$$$$&&$$$t   5XX.XXX",
"     y   u$$&&&$$$$$$$$$$$$$$$$$$$$$$$$$$$$$$$$$&&&$$i   4XX.XXX",
"     y 7 u$$&&&$$$$$$$$$$$$$$$$$$$$$$$$$$$$$$$$$&&&$$i   7XXXXXX",
"     y p u$$&&&&&&&&&&&&&&&&&&&&&&&&&&&&&&$$$$$$&&&$$i   7XXX.XX",
"     a 7 u$$&&&&&&&&&&&&&&&&&&&&&&&&&&&&&$$$$$&&&&&$$i   7XXX.XX",
"  sd.   fg$$&&&&&&&&&&&&&&&&&$$$$$&&&&&&&$$$$$&&&&&$$h      4.XX",
" 8    $$$$$$&&&&&&&&&&&&&&&&$$$$$$$&&&&$$$$$$&&&&&&$$$$$$    X.X",
" a  jk$$$$$&&&&&&&&&&&&&&&&&$$l>z$$&&&&$$$$$$&&&&&&&$$$$$x-  X.X",
" a   c$$&&&&&&&&&&&&&&&&&&&&$$v b$$&&&$$$$$&&&&&&&&&&&&$$0   X.X",
" s   c$$&&&&&&&&&&&&&&&&&&&&$$v n$$&$$$$$$$&&&&&&&&&&&&$$0   XXX",
" a   c$$&&&&&&&&&&&&&&&&&&&&$$v n$$&$$$$$$&&&&&&&&&&&&&$$0   XX.",
" 3   c$$&&&&&&&&&&&&&&&&&&&&$$v n$$$$$$$$$&&&&&&&&&&&&&$$0   XX.",
" y   c$$&&&&&&&&&&&&&&&&&&&&$$v n$$$$$$$&&&&&&&&&&&&&&&$$0   XXX",
" y   c$$&&&&&&&&&&&&&&&&&&&&$$v n$$$$$$&&&&&&&&&&&&&&&&$$0   XXX",
" a   c$$&&&&&&&&&&&&&&&&&&&&$$v n$$$$$$&&&&&&&&&&&&&&&&$$0   XXX",
" m   c$$&&&&&&&&&&&&&&&&&&&&$$M b$$$$&&&&&&&&&&&&&&&&&&$$0   XXX",
" m   c$$&&&&&&&&&&&&&&&&&&$&$$NBV$$$&&&&&&&&&&&&&&&&&&&$$0   XXX",
" y   c$$&&&&&&&&&&&&&&&&&$$$$$   $$$$$&&&&&&&&&&&&&&&&&$$0   XXX",
" C   c$$&&&&&&&&&&&&&&&&$$           $$&&&&&&&&&&&&&&&&$$0   XXX",
" e   c$$&&&&&&&&&&&&&&$$$$  Z     =  $$&&&&&&&&&&&&&&&&$$0   XXX",
" s   c$$&&&&&&&&&&&&&$$$$$        =  $$&&&&&&&&&&&&&&&&$$0   XXX",
" C   c$$&&&&&&&&&&&$$$$$$$        =  $$&&&&&&&&&&&&&&&&$$0   XXX",
" 8   f$$&&&&&&&&&&$$$$$$$$        =  $$&&&&&&&&&&&&&&&&$$0   XXX",
" m   c$$&&&&&&&&&$$$$$$&$$        =  $$&&&&&&&&&&&&&&&&$$0   XXX",
" m  AS$$$$$&&&&$$$$$$&&&$$        =  $$&&&&&&&&&&&&&$$$$$D   XXX",
" +F   $$$$$$&&&$$$$$$$$$$$        =  $$$$$$$$$$$&&&$$$$$$    XXX",
"  3wZ     $$&&&$$$$$$$$$$$        =  $$$$$$$$$$$&&&$$G       XXX",
"     = 7 H$$&&&$$$$$$$$$$$        J  $$$$$$$$$$$&&&$$K   7X XXXX",
"     L 7 u$$&&&$$$$$$$$$$$ X       P $$$$$$$$$$$&&&$$i   XXXXXXX",
"     = 7  $$&&&&&&&&&$$$$$           $$$$$&&&&&&&&&$$i   XXXXXXX",
"     = 7  $$&&&&&&&&$$       5XXX     IU$$&&&&&&&&&$$i   7XXXXXX",
"     =    $$&&&&&&&&$$  y  X.XXXXX X  Y $$&&&&&&&&&$$    4XXXXXX",
"     3  T $$$$$&&&&&$$  R  XXXXXXXX   E $$&&&&&&$$$$$    7XXXXXX",
"     C    $$$$$$&&&&$$  a  XXXXXXXX   E $$&&&&&$$$$$$    XXXXXXX",
"           W: $$&&&&$$  R  XXXXXXXX   E $$&&&&&$$Q:!  XXXXXXXXXX",
"           ~  $$&&&&$$  R  XXXXXXXX   E $$&&&&&$$^ 4 ZXXXXXXXXXX",
"         4 /( $$$$$$$$ (   XXXXXXXX    )$$$$$$$$$    (XXXXXXXXXX",
"         m    $$$$$$$$     XXXXXXXXX     $$$$$$$$    4XXXXXXXXXX",
"          ...          X.XXXXXXXXXXX   X  _%%%`'  XXXXXXXXXXXXXX",
"          ...  ]*111e  XXXXXXXXXXXXXXXXX  +111*[  XXXXXXXXXXXXXX",
"          ...          XX.XXXXXXXXXXXXXX          XXXXXXXXXXXXXX",
"          ...)         XXXXXXXXXXXXXXXXX          XXXXXXXXXXXXXX",
"          ...XXXXXXX.  XXXXXXXXXXXXXXXXXXXXXXXXXXXXXXXXXXXXXXXXX",
"          ....XX.XXXX.XXXXXXXXXXXXXXXXXXXXXXXXXXXXXXXXXXXXXXXXXX",
"          ....XX.XXXX.XXXXXXXXXXXXXXXXXXXXXXXXXXXXXXXXXXXXXXXXXX",
"          ....XXXXXXXXXXXXXXXXXXXXXXXXXXXXXXXXXXXXXXXXXXXXXXXXXX",
"          .....XXXXXXXXXXXXXXXXXXXXXXXXXXXXXXXXXXXXXXXXXXXXXXXXX"
};
